<svg width="101" height="13" viewBox="0 0 101 13" fill="none" xmlns="http://www.w3.org/2000/svg">
<path d="M4.32248 12.682C4.2034 12.682 4.10814 12.6463 4.03669 12.5748C3.96524 12.5034 3.92952 12.4081 3.92952 12.289V1.25031H0.392836C0.273756 1.25031 0.178492 1.21459 0.107044 1.14314C0.0355959 1.07169 -0.000128184 0.976428 -0.000128184 0.857347V0.589417C-0.000128184 0.458429 0.0355959 0.357211 0.107044 0.285763C0.178492 0.214315 0.273756 0.17859 0.392836 0.17859H8.57364C8.70463 0.17859 8.80585 0.214315 8.8773 0.285763C8.94875 0.357211 8.98447 0.458429 8.98447 0.589417V0.857347C8.98447 0.976428 8.94875 1.07169 8.8773 1.14314C8.80585 1.21459 8.70463 1.25031 8.57364 1.25031H5.05482V12.289C5.05482 12.4081 5.0191 12.5034 4.94765 12.5748C4.8762 12.6463 4.77499 12.682 4.644 12.682H4.32248ZM10.4606 12.682C10.3415 12.682 10.2463 12.6463 10.1748 12.5748C10.1034 12.5034 10.0676 12.4081 10.0676 12.289V0.589417C10.0676 0.458429 10.1034 0.357211 10.1748 0.285763C10.2463 0.214315 10.3415 0.17859 10.4606 0.17859H14.6224C15.8728 0.17859 16.8671 0.476291 17.6054 1.07169C18.3556 1.66709 18.7307 2.5721 18.7307 3.78672C18.7307 4.73936 18.4926 5.50147 18.0162 6.07306C17.5399 6.64464 16.879 7.03165 16.0335 7.23409L18.9093 12.1283C18.9451 12.1997 18.9629 12.2652 18.9629 12.3248C18.9629 12.42 18.9272 12.5034 18.8557 12.5748C18.7843 12.6463 18.7009 12.682 18.6057 12.682H18.3913C18.2008 12.682 18.0579 12.6344 17.9626 12.5391C17.8674 12.4319 17.784 12.3188 17.7126 12.1997L14.8725 7.39485H11.1929V12.289C11.1929 12.4081 11.1572 12.5034 11.0858 12.5748C11.0143 12.6463 10.9131 12.682 10.7821 12.682H10.4606ZM11.1929 6.32313H14.5331C15.5691 6.32313 16.3372 6.11474 16.8373 5.69796C17.3494 5.26927 17.6054 4.63219 17.6054 3.78672C17.6054 2.94125 17.3494 2.31013 16.8373 1.89334C16.3372 1.46466 15.5691 1.25031 14.5331 1.25031H11.1929V6.32313ZM19.5282 12.682C19.433 12.682 19.3496 12.6463 19.2782 12.5748C19.2067 12.5034 19.171 12.42 19.171 12.3248C19.171 12.2652 19.1829 12.1997 19.2067 12.1283L23.7258 0.535831C23.7734 0.416751 23.833 0.32744 23.9044 0.2679C23.9878 0.20836 24.1009 0.17859 24.2438 0.17859H24.8511C24.994 0.17859 25.1012 0.20836 25.1726 0.2679C25.256 0.32744 25.3215 0.416751 25.3691 0.535831L29.8882 12.1283C29.912 12.1997 29.9239 12.2652 29.9239 12.3248C29.9239 12.42 29.8882 12.5034 29.8168 12.5748C29.7453 12.6463 29.6619 12.682 29.5667 12.682H29.2094C29.0904 12.682 29.0011 12.6522 28.9415 12.5927C28.882 12.5212 28.8403 12.4617 28.8165 12.4141L27.709 9.55615H21.3859L20.2784 12.4141C20.2665 12.4617 20.2248 12.5212 20.1534 12.5927C20.0939 12.6522 20.0045 12.682 19.8855 12.682H19.5282ZM21.8146 8.48443H27.2803L24.5475 1.44679L21.8146 8.48443ZM34.9909 12.8606C33.9072 12.8606 33.0201 12.6522 32.3294 12.2355C31.6507 11.8068 31.1446 11.2292 30.8112 10.5028C30.4777 9.77645 30.2932 8.94884 30.2574 8.02002C30.2455 7.53179 30.2396 7.00784 30.2396 6.44816C30.2396 5.88848 30.2455 5.35262 30.2574 4.84058C30.2932 3.91175 30.4777 3.08415 30.8112 2.35776C31.1446 1.61946 31.6507 1.04192 32.3294 0.625142C33.0201 0.208361 33.9072 -2.97494e-05 34.9909 -2.97494e-05C35.8363 -2.97494e-05 36.5568 0.11905 37.1522 0.35721C37.7476 0.595371 38.2299 0.910934 38.599 1.3039C38.9801 1.68495 39.2599 2.10174 39.4385 2.55424C39.629 2.99484 39.7362 3.42948 39.76 3.85817C39.7719 3.96534 39.7362 4.05465 39.6529 4.1261C39.5814 4.18564 39.4921 4.21541 39.3849 4.21541H39.0277C38.9324 4.21541 38.8491 4.19159 38.7776 4.14396C38.7062 4.08442 38.6585 3.9832 38.6347 3.84031C38.4085 2.78049 37.9798 2.0541 37.3487 1.66114C36.7294 1.26817 35.9435 1.07169 34.9909 1.07169C33.9072 1.07169 33.0439 1.3813 32.4009 2.00052C31.7698 2.60783 31.4304 3.58428 31.3827 4.92989C31.347 5.90635 31.347 6.90662 31.3827 7.93071C31.4304 9.27631 31.7698 10.2587 32.4009 10.8779C33.0439 11.4853 33.9072 11.7889 34.9909 11.7889C35.9435 11.7889 36.7294 11.5924 37.3487 11.1995C37.9798 10.8065 38.4085 10.0801 38.6347 9.02029C38.6585 8.8774 38.7062 8.78213 38.7776 8.7345C38.8491 8.67496 38.9324 8.64519 39.0277 8.64519H39.3849C39.4921 8.64519 39.5814 8.68091 39.6529 8.75236C39.7362 8.8119 39.7719 8.89526 39.76 9.00243C39.7362 9.43112 39.629 9.87172 39.4385 10.3242C39.2599 10.7648 38.9801 11.1816 38.599 11.5746C38.2299 11.9556 37.7476 12.2652 37.1522 12.5034C36.5568 12.7415 35.8363 12.8606 34.9909 12.8606ZM41.7136 12.682C41.5945 12.682 41.4992 12.6463 41.4278 12.5748C41.3563 12.5034 41.3206 12.4081 41.3206 12.289V0.589417C41.3206 0.458429 41.3563 0.357211 41.4278 0.285763C41.4992 0.214315 41.5945 0.17859 41.7136 0.17859H42.0351C42.1661 0.17859 42.2673 0.214315 42.3387 0.285763C42.4102 0.357211 42.4459 0.458429 42.4459 0.589417V5.23354L47.8581 0.44652C47.9057 0.410797 47.9831 0.357211 48.0903 0.285763C48.1975 0.214315 48.3463 0.17859 48.5368 0.17859H48.8226C48.9179 0.17859 49.0013 0.214315 49.0727 0.285763C49.1442 0.357211 49.1799 0.440567 49.1799 0.535831C49.1799 0.631095 49.1501 0.708497 49.0906 0.768037L43.0353 6.16237L49.4657 12.0747C49.5371 12.1461 49.5728 12.2295 49.5728 12.3248C49.5728 12.42 49.5371 12.5034 49.4657 12.5748C49.3942 12.6463 49.3109 12.682 49.2156 12.682H48.912C48.7214 12.682 48.5726 12.6463 48.4654 12.5748C48.3582 12.5034 48.2808 12.4498 48.2332 12.4141L42.4459 7.12692V12.289C42.4459 12.4081 42.4102 12.5034 42.3387 12.5748C42.2673 12.6463 42.1661 12.682 42.0351 12.682H41.7136ZM50.5409 12.682C50.4099 12.682 50.3027 12.6403 50.2194 12.557C50.136 12.4736 50.0943 12.3664 50.0943 12.2355V0.625142C50.0943 0.494153 50.136 0.386981 50.2194 0.303625C50.3027 0.220269 50.4099 0.17859 50.5409 0.17859H52.4343C52.6367 0.17859 52.7796 0.226222 52.8629 0.321487C52.9582 0.404843 53.0177 0.470336 53.0416 0.517969L57.3999 7.39485V0.625142C57.3999 0.494153 57.4416 0.386981 57.5249 0.303625C57.6083 0.220269 57.7155 0.17859 57.8464 0.17859H59.9899C60.1209 0.17859 60.2281 0.220269 60.3114 0.303625C60.3948 0.386981 60.4364 0.494153 60.4364 0.625142V12.2355C60.4364 12.3545 60.3948 12.4617 60.3114 12.557C60.2281 12.6403 60.1209 12.682 59.9899 12.682H58.0787C57.8881 12.682 57.7452 12.6344 57.65 12.5391C57.5666 12.4438 57.513 12.3784 57.4892 12.3426L53.1309 5.73368V12.2355C53.1309 12.3664 53.0892 12.4736 53.0058 12.557C52.9225 12.6403 52.8153 12.682 52.6843 12.682H50.5409ZM62.3075 12.682C62.1765 12.682 62.0693 12.6403 61.986 12.557C61.9026 12.4736 61.8609 12.3664 61.8609 12.2355V0.625142C61.8609 0.494153 61.9026 0.386981 61.986 0.303625C62.0693 0.220269 62.1765 0.17859 62.3075 0.17859H64.701C64.832 0.17859 64.9392 0.220269 65.0225 0.303625C65.1059 0.386981 65.1476 0.494153 65.1476 0.625142V12.2355C65.1476 12.3664 65.1059 12.4736 65.0225 12.557C64.9392 12.6403 64.832 12.682 64.701 12.682H62.3075ZM67.027 12.682C66.896 12.682 66.7888 12.6403 66.7055 12.557C66.6221 12.4736 66.5804 12.3664 66.5804 12.2355V0.625142C66.5804 0.494153 66.6221 0.386981 66.7055 0.303625C66.7888 0.220269 66.896 0.17859 67.027 0.17859H68.9203C69.1228 0.17859 69.2657 0.226222 69.349 0.321487C69.4443 0.404843 69.5038 0.470336 69.5277 0.517969L73.886 7.39485V0.625142C73.886 0.494153 73.9277 0.386981 74.011 0.303625C74.0944 0.220269 74.2015 0.17859 74.3325 0.17859H76.476C76.607 0.17859 76.7141 0.220269 76.7975 0.303625C76.8809 0.386981 76.9225 0.494153 76.9225 0.625142V12.2355C76.9225 12.3545 76.8809 12.4617 76.7975 12.557C76.7141 12.6403 76.607 12.682 76.476 12.682H74.5647C74.3742 12.682 74.2313 12.6344 74.1361 12.5391C74.0527 12.4438 73.9991 12.3784 73.9753 12.3426L69.617 5.73368V12.2355C69.617 12.3664 69.5753 12.4736 69.4919 12.557C69.4086 12.6403 69.3014 12.682 69.1704 12.682H67.027ZM82.6696 12.8606C81.9909 12.8606 81.3419 12.7773 80.7227 12.6106C80.1154 12.4319 79.5735 12.17 79.0972 11.8246C78.6209 11.4793 78.2398 11.0506 77.9541 10.5386C77.6802 10.0265 77.5313 9.43112 77.5075 8.75236C77.5075 8.64519 77.5432 8.55588 77.6147 8.48443C77.6861 8.40108 77.7814 8.3594 77.9005 8.3594H80.3118C80.4786 8.3594 80.6036 8.40108 80.6869 8.48443C80.7822 8.56779 80.8596 8.69282 80.9192 8.85953C80.9787 9.19296 81.0918 9.46684 81.2585 9.68119C81.4252 9.88362 81.6336 10.0384 81.8837 10.1456C82.1457 10.2409 82.4374 10.2885 82.7589 10.2885C83.3543 10.2885 83.8128 10.098 84.1343 9.71691C84.4558 9.32395 84.6166 8.75236 84.6166 8.00216V2.84003H78.8293C78.7102 2.84003 78.603 2.79835 78.5078 2.715C78.4244 2.63164 78.3827 2.52447 78.3827 2.39348V0.625142C78.3827 0.494153 78.4244 0.386981 78.5078 0.303625C78.603 0.220269 78.7102 0.17859 78.8293 0.17859H87.4745C87.6055 0.17859 87.7127 0.220269 87.796 0.303625C87.8913 0.386981 87.9389 0.494153 87.9389 0.625142V8.09147C87.9389 9.12746 87.7127 10.0027 87.2602 10.7172C86.8077 11.4198 86.1884 11.9556 85.4025 12.3248C84.6166 12.682 83.7056 12.8606 82.6696 12.8606ZM88.2479 12.682C88.1526 12.682 88.0633 12.6463 87.98 12.5748C87.9085 12.4915 87.8728 12.4022 87.8728 12.3069C87.8728 12.2474 87.8787 12.1938 87.8907 12.1461L92.0882 0.678727C92.124 0.547739 92.1954 0.434613 92.3026 0.339349C92.4217 0.232176 92.5824 0.17859 92.7849 0.17859H95.4284C95.6309 0.17859 95.7857 0.232176 95.8928 0.339349C96.0119 0.434613 96.0893 0.547739 96.125 0.678727L100.305 12.1461C100.329 12.1938 100.34 12.2474 100.34 12.3069C100.34 12.4022 100.299 12.4915 100.215 12.5748C100.144 12.6463 100.055 12.682 99.9475 12.682H97.7505C97.5719 12.682 97.4349 12.6403 97.3397 12.557C97.2563 12.4617 97.2027 12.3784 97.1789 12.3069L96.4823 10.485H91.7131L91.0344 12.3069C91.0106 12.3784 90.957 12.4617 90.8736 12.557C90.7903 12.6403 90.6474 12.682 90.4449 12.682H88.2479ZM92.4455 7.91285H95.7678L94.0888 3.19727L92.4455 7.91285Z" fill="#12141C"/>
</svg>
