<svg width="101" height="23" viewBox="0 0 101 23" fill="none" xmlns="http://www.w3.org/2000/svg">
<g clip-path="url(#clip0_9_40111)">
<mask id="mask0_9_40111" style="mask-type:luminance" maskUnits="userSpaceOnUse" x="0" y="0" width="101" height="23">
<path d="M101 0H0V22.6588H101V0Z" fill="white"/>
</mask>
<g mask="url(#mask0_9_40111)">
<path d="M46.1698 13.9614C46.9219 13.9614 47.3796 13.5364 47.3796 12.9805C47.3796 12.1631 46.5622 11.8689 45.8429 11.4111C44.8947 10.8553 44.4042 10.2994 44.4042 9.4493C44.4042 8.40301 45.2216 7.61829 46.4968 7.61829C47.0854 7.61829 47.6412 7.74907 48.2297 8.04334L48.197 9.15503C47.5431 8.79537 47.02 8.59919 46.5949 8.59919C45.941 8.59919 45.5813 8.92615 45.5813 9.38391C45.5813 10.0051 46.366 10.3321 47.02 10.7572C48.0663 11.3784 48.6221 11.9996 48.6221 12.9478C48.6221 14.1576 47.7393 15.0077 46.2352 15.0077C45.5813 15.0077 44.9601 14.8769 44.3715 14.5827L44.2734 13.2421C44.9601 13.7326 45.5813 13.9614 46.1698 13.9614Z" fill="#77787B"/>
</g>
<mask id="mask1_9_40111" style="mask-type:luminance" maskUnits="userSpaceOnUse" x="0" y="0" width="101" height="23">
<path d="M101 0H0V22.6588H101V0Z" fill="white"/>
</mask>
<g mask="url(#mask1_9_40111)">
<path d="M39.3339 13.9614C40.0859 13.9614 40.5437 13.5364 40.5437 12.9805C40.5437 12.1631 39.7263 11.8689 39.0069 11.4111C38.0587 10.8553 37.5683 10.2994 37.5683 9.4493C37.5683 8.40301 38.3857 7.61829 39.6609 7.61829C40.2821 7.61829 40.8053 7.74907 41.3938 8.04334L41.3611 9.15503C40.7072 8.79537 40.184 8.59919 39.759 8.59919C39.105 8.59919 38.7454 8.92615 38.7454 9.38391C38.7454 10.0051 39.5301 10.3321 40.184 10.7572C41.2303 11.3784 41.7862 11.9996 41.7862 12.9478C41.7862 14.1576 40.9033 15.0077 39.3993 15.0077C38.7454 15.0077 38.1241 14.8769 37.5356 14.5827L37.4375 13.2421C38.1241 13.7326 38.7454 13.9614 39.3339 13.9614Z" fill="#77787B"/>
</g>
<mask id="mask2_9_40111" style="mask-type:luminance" maskUnits="userSpaceOnUse" x="0" y="0" width="101" height="23">
<path d="M101 0H0V22.6588H101V0Z" fill="white"/>
</mask>
<g mask="url(#mask2_9_40111)">
<path d="M52.4754 11.9343C52.4754 13.2748 53.0312 13.9615 54.1429 13.9615C55.2219 13.9615 55.8105 13.2748 55.8105 11.9016V7.87988H57.0529V11.9016C57.0529 13.9288 55.9739 15.0078 54.1756 15.0078C52.3119 15.0078 51.2656 13.798 51.2656 11.9343V7.87988H52.5081V11.9343H52.4754Z" fill="#77787B"/>
</g>
<mask id="mask3_9_40111" style="mask-type:luminance" maskUnits="userSpaceOnUse" x="0" y="0" width="101" height="23">
<path d="M101 0H0V22.6588H101V0Z" fill="white"/>
</mask>
<g mask="url(#mask3_9_40111)">
<path d="M60.0625 7.87988H61.6646C62.5474 7.87988 63.2341 7.94528 63.8226 8.37033C64.3458 8.73 64.64 9.28584 64.64 9.84168C64.64 10.7572 64.1169 11.4438 63.136 11.7708L65.3594 14.8116H63.9534L61.8608 11.967H61.2723V14.8116H60.0952V7.87988H60.0625ZM63.4303 9.93977C63.4303 8.86078 62.2532 8.89348 61.2723 8.89348V11.0188C62.0243 11.0188 63.4303 11.0842 63.4303 9.93977Z" fill="#77787B"/>
</g>
<mask id="mask4_9_40111" style="mask-type:luminance" maskUnits="userSpaceOnUse" x="0" y="0" width="101" height="23">
<path d="M101 0H0V22.6588H101V0Z" fill="white"/>
</mask>
<g mask="url(#mask4_9_40111)">
<path d="M87.9546 14.7789H86.7448V8.95887H84.3906V7.87988H90.276V8.95887H87.9546V14.7789Z" fill="#77787B"/>
</g>
<mask id="mask5_9_40111" style="mask-type:luminance" maskUnits="userSpaceOnUse" x="0" y="0" width="101" height="23">
<path d="M101 0H0V22.6588H101V0Z" fill="white"/>
</mask>
<g mask="url(#mask5_9_40111)">
<path d="M32.1094 7.6837C32.1094 7.6837 32.0767 7.651 32.044 7.651C32.0113 7.651 31.9786 7.6837 31.9786 7.6837C30.2784 10.234 29.6244 11.6073 28.5781 14.8116H29.8206C29.9187 14.3865 30.213 13.5364 30.3764 13.1113H33.7115C33.8423 13.5364 34.1366 14.3865 34.2673 14.8116H35.5098C34.4635 11.5746 33.8096 10.1686 32.1094 7.6837ZM30.9323 12.0324C31.2593 11.1495 31.5862 10.3648 32.0767 9.6128C32.5671 10.3975 32.9595 11.2149 33.2537 12.0324H30.9323Z" fill="#77787B"/>
</g>
<mask id="mask6_9_40111" style="mask-type:luminance" maskUnits="userSpaceOnUse" x="0" y="0" width="101" height="23">
<path d="M101 0H0V22.6588H101V0Z" fill="white"/>
</mask>
<g mask="url(#mask6_9_40111)">
<path d="M70.4609 7.6837C70.4609 7.6837 70.4282 7.651 70.3955 7.651C70.3628 7.651 70.3301 7.6837 70.3301 7.6837C68.6299 10.234 67.976 11.6073 66.9297 14.8116H68.1722C68.2703 14.3865 68.5645 13.5364 68.728 13.1113H72.0631C72.1938 13.5364 72.4881 14.3865 72.6189 14.8116H73.8614C72.8151 11.5746 72.1285 10.1686 70.4609 7.6837ZM69.2512 12.0324C69.5781 11.1495 69.9051 10.3648 70.3955 9.6128C70.886 10.3975 71.2783 11.2149 71.5726 12.0324H69.2512Z" fill="#77787B"/>
</g>
<mask id="mask7_9_40111" style="mask-type:luminance" maskUnits="userSpaceOnUse" x="0" y="0" width="101" height="23">
<path d="M101 0H0V22.6588H101V0Z" fill="white"/>
</mask>
<g mask="url(#mask7_9_40111)">
<path d="M77.3568 10.4956L81.8689 15.0077C81.8689 15.0077 81.9016 15.0077 81.9343 14.975C81.9343 14.975 81.967 14.9423 81.967 14.9096V7.87986H80.7899V12.1304L76.2778 7.61829C76.2778 7.61829 76.2451 7.61829 76.2124 7.65098C76.2124 7.65098 76.1797 7.68368 76.1797 7.71638V14.7789H77.3568V10.4956Z" fill="#77787B"/>
</g>
<mask id="mask8_9_40111" style="mask-type:luminance" maskUnits="userSpaceOnUse" x="0" y="0" width="101" height="23">
<path d="M101 0H0V22.6588H101V0Z" fill="white"/>
</mask>
<g mask="url(#mask8_9_40111)">
<path d="M4.51562 10.7898C4.51562 10.9533 4.51562 11.1495 4.51562 11.313C4.51562 13.0786 5.00607 14.7461 5.85619 16.1521C6.44473 14.1576 7.29484 12.065 8.40653 9.9397C7.03327 10.2013 5.7254 10.4628 4.51562 10.7898Z" fill="#F9A51A"/>
</g>
<mask id="mask9_9_40111" style="mask-type:luminance" maskUnits="userSpaceOnUse" x="0" y="0" width="101" height="23">
<path d="M101 0H0V22.6588H101V0Z" fill="white"/>
</mask>
<g mask="url(#mask9_9_40111)">
<path d="M6.14844 5.98332C7.75057 5.65636 9.4835 5.39478 11.2818 5.29669C12.1319 4.08692 13.0474 3.00793 13.9629 2.02703C13.9302 1.99433 13.8975 1.92894 13.8322 1.89624C10.6606 1.89624 7.84866 3.53107 6.14844 5.98332Z" fill="#F9A51A"/>
</g>
<mask id="mask10_9_40111" style="mask-type:luminance" maskUnits="userSpaceOnUse" x="0" y="0" width="101" height="23">
<path d="M101 0H0V22.6588H101V0Z" fill="white"/>
</mask>
<g mask="url(#mask10_9_40111)">
<path d="M19.1597 3.40039C18.4404 6.17961 17.2306 9.1877 15.4977 12.1958C15.0072 13.0459 14.4841 13.8633 13.9609 14.6153C14.4841 15.4001 15.0399 16.1194 15.5958 16.806C16.3805 16.7733 17.1325 16.7079 17.8845 16.6425C18.375 15.9232 18.8327 15.1385 19.2905 14.3538C20.6965 11.9342 21.7754 9.48197 22.5275 7.1932C21.7754 5.68916 20.5984 4.34859 19.1597 3.40039Z" fill="#F9A51A"/>
</g>
<mask id="mask11_9_40111" style="mask-type:luminance" maskUnits="userSpaceOnUse" x="0" y="0" width="101" height="23">
<path d="M101 0H0V22.6588H101V0Z" fill="white"/>
</mask>
<g mask="url(#mask11_9_40111)">
<path d="M19.1577 3.40045C17.6536 2.41955 15.888 1.86371 13.9589 1.86371H13.8281C15.2668 3.36776 16.64 5.16607 17.9152 7.19326C18.4384 5.8854 18.8634 4.61023 19.1577 3.40045Z" fill="#37B34A"/>
</g>
<mask id="mask12_9_40111" style="mask-type:luminance" maskUnits="userSpaceOnUse" x="0" y="0" width="101" height="23">
<path d="M101 0H0V22.6588H101V0Z" fill="white"/>
</mask>
<g mask="url(#mask12_9_40111)">
<path d="M22.5243 7.25848C22.0339 8.79523 21.3799 10.4301 20.5625 12.0649C21.1837 13.4055 21.6742 14.7133 22.0665 16.0212C22.1319 16.0212 22.1646 15.9885 22.23 15.9885C23.0147 14.6152 23.4398 13.0458 23.4398 11.3456C23.4398 9.87422 23.1128 8.50096 22.5243 7.25848Z" fill="#37B34A"/>
</g>
<mask id="mask13_9_40111" style="mask-type:luminance" maskUnits="userSpaceOnUse" x="0" y="0" width="101" height="23">
<path d="M101 0H0V22.6588H101V0Z" fill="white"/>
</mask>
<g mask="url(#mask13_9_40111)">
<path d="M12.4586 12.2284C11.9682 11.3783 11.5104 10.5282 11.118 9.6781C10.1698 9.74349 9.28703 9.84158 8.40422 9.97237C8.04456 10.659 7.71759 11.3456 7.39062 12.0323C7.78299 12.817 8.20804 13.6017 8.66579 14.3864C10.0718 16.806 11.6412 18.964 13.2433 20.7623C13.4722 20.795 13.7338 20.795 13.9954 20.795C15.5321 20.795 16.9707 20.4353 18.2786 19.7814C16.186 17.8196 14.1915 15.2365 12.4586 12.2284Z" fill="#37B34A"/>
</g>
<mask id="mask14_9_40111" style="mask-type:luminance" maskUnits="userSpaceOnUse" x="0" y="0" width="101" height="23">
<path d="M101 0H0V22.6588H101V0Z" fill="white"/>
</mask>
<g mask="url(#mask14_9_40111)">
<path d="M22.2312 15.9886C20.204 16.479 17.9479 16.7733 15.5938 16.8714C16.4439 17.9504 17.3594 18.9313 18.2422 19.8141C19.9424 18.964 21.3157 17.6234 22.2312 15.9886Z" fill="#0077BF"/>
</g>
<mask id="mask15_9_40111" style="mask-type:luminance" maskUnits="userSpaceOnUse" x="0" y="0" width="101" height="23">
<path d="M101 0H0V22.6588H101V0Z" fill="white"/>
</mask>
<g mask="url(#mask15_9_40111)">
<path d="M10.0709 16.708C8.59953 16.5445 7.19357 16.3156 5.88571 16.0214C5.85301 16.0868 5.85301 16.1195 5.82031 16.1848C7.35706 18.7679 10.0709 20.5335 13.2425 20.7951C12.1308 19.5853 11.0845 18.212 10.0709 16.708Z" fill="#0077BF"/>
</g>
<mask id="mask16_9_40111" style="mask-type:luminance" maskUnits="userSpaceOnUse" x="0" y="0" width="101" height="23">
<path d="M101 0H0V22.6588H101V0Z" fill="white"/>
</mask>
<g mask="url(#mask16_9_40111)">
<path d="M13.965 5.19861C11.153 5.19861 8.50462 5.49288 6.15046 5.98333C5.20225 7.35659 4.61372 9.02412 4.51562 10.8224C7.26215 10.0377 10.4991 9.61266 13.965 9.61266C14.9459 9.61266 15.8941 9.64536 16.8423 9.71075C17.2346 8.86064 17.627 8.04322 17.954 7.19311C17.5289 6.53917 17.1038 5.88524 16.6788 5.2967C15.796 5.19861 14.8805 5.19861 13.965 5.19861Z" fill="#0077BF"/>
</g>
<mask id="mask17_9_40111" style="mask-type:luminance" maskUnits="userSpaceOnUse" x="0" y="0" width="101" height="23">
<path d="M101 0H0V22.6588H101V0Z" fill="white"/>
</mask>
<g mask="url(#mask17_9_40111)">
<path d="M92.4375 9.28586C92.4375 8.8935 92.5683 8.59923 92.8299 8.30496C93.0914 8.04338 93.4184 7.9126 93.8108 7.9126C94.2031 7.9126 94.5301 8.04338 94.7917 8.30496C95.0532 8.56653 95.184 8.8935 95.184 9.28586C95.184 9.67822 95.0532 9.97249 94.7917 10.2668C94.5301 10.5283 94.2031 10.6591 93.8108 10.6591C93.4184 10.6591 93.1241 10.5283 92.8299 10.2668C92.601 9.97249 92.4375 9.67822 92.4375 9.28586ZM94.9878 9.28586C94.9878 8.95889 94.8897 8.69732 94.6609 8.46844C94.432 8.23956 94.1704 8.14147 93.8435 8.14147C93.5165 8.14147 93.2549 8.23956 93.026 8.46844C92.7972 8.69732 92.6991 8.95889 92.6991 9.28586C92.6991 9.61282 92.7972 9.8744 93.026 10.1033C93.2549 10.3322 93.5165 10.4302 93.8435 10.4302C94.1704 10.4302 94.432 10.3322 94.6609 10.1033C94.857 9.8744 94.9878 9.61282 94.9878 9.28586ZM94.2685 10.1033L93.8435 9.38395H93.6146V10.1033H93.3857V8.40305H93.8108C94.2358 8.40305 94.432 8.56653 94.432 8.8608C94.432 9.08968 94.3339 9.22046 94.105 9.31855L94.5628 10.0706H94.2685V10.1033ZM93.5819 8.63192V9.18777C93.6146 9.18777 93.6473 9.18777 93.7454 9.18777C93.9088 9.18777 94.0069 9.15507 94.0723 9.12237C94.1377 9.08968 94.1377 8.99159 94.1377 8.8935C94.1377 8.69732 94.0069 8.59923 93.7781 8.59923H93.68L93.5819 8.63192Z" fill="#77787B"/>
</g>
</g>
<defs>
<clipPath id="clip0_9_40111">
<rect width="101" height="22.6588" fill="white"/>
</clipPath>
</defs>
</svg>
