<svg width="90" height="32" viewBox="0 0 90 32" fill="none" xmlns="http://www.w3.org/2000/svg">
<path d="M48.9082 0.814425L47.5859 1.62885V16.4462V31.2635H48.9581H50.3302V15.6318C50.3302 7.04086 50.3053 -3.8147e-06 50.2803 -3.8147e-06C50.2304 -3.8147e-06 49.6067 0.367802 48.9082 0.814425Z" fill="#F04F23"/>
<path d="M10.439 2.82383C8.74255 3.16536 5.89847 4.79422 4.47642 6.2129C-0.114028 10.8368 -1.28659 17.5098 1.48265 23.3684C5.4494 31.6966 15.6033 33.8772 21.9401 27.7821C24.1854 25.6278 25.9149 20.997 25.8213 17.8071V16.8592L20.5929 16.7742L15.4037 16.7217V18.298V19.8743H18.9214H22.4391L22.2644 20.8463C21.6158 24.5244 17.8486 27.8872 14.0565 28.2025C11.3372 28.4389 8.84234 27.4143 6.59701 25.1549C2.58037 21.1091 2.03151 14.6199 5.34961 9.94351C9.26646 4.42641 16.4765 3.92725 21.2665 8.86636L22.2894 9.89096L23.3372 8.76127L24.41 7.60531L23.0129 6.26544C21.3912 4.68913 18.5971 3.16536 16.6761 2.79756C15.1043 2.48229 11.9858 2.50856 10.439 2.82383Z" fill="#F04F23"/>
<path d="M87.2578 7.9331V9.37805H88.63H90.0021V7.9331V6.48814H88.63H87.2578V7.9331Z" fill="#F04F23"/>
<path d="M73.3655 7.90783L72.0432 8.72226V11.0605V13.3987H71.1701H70.2969V14.7123V16.0258H71.1701H72.0432V23.6447V31.2635H73.4154H74.7875V23.6447V16.0258H75.6607H76.5339V14.7123V13.3987H75.6607H74.6628L74.6646 10.2461L74.6628 7.11967L73.3655 7.90783Z" fill="#F04F23"/>
<path d="M81.7667 7.88156C81.2701 8.14679 80.4587 8.47924 80.4587 8.47924V10.9422V13.4052H79.5231L78.5234 13.3987V14.7122V16.1572L79.4715 16.1572L80.4587 16.1638V23.7013V31.2635H81.7667H83.0782L83.064 23.6972L83.0782 16.1638C83.0782 16.1638 83.4525 16.1638 84.1073 16.1638C84.7622 16.1638 84.7622 16.2623 84.7605 14.686C84.7587 13.1097 84.7622 13.4052 84.7622 13.4052H83.891H82.8911V11.8289L82.8894 10.304V7.19848C82.8894 7.19848 82.2183 7.64036 81.7667 7.88156Z" fill="#F04F23"/>
<path d="M87.2578 22.3311V31.2635H88.63H90.0021V22.3311V13.3987H88.63H87.2578V22.3311Z" fill="#F04F23"/>
<path d="M60.3547 31.4671C58.7999 31.4671 57.445 31.1006 56.29 30.3676C55.1349 29.6124 54.2354 28.5685 53.5912 27.2358C52.9471 25.8809 52.625 24.2928 52.625 22.4715C52.625 20.6501 52.9471 19.0731 53.5912 17.7405C54.2354 16.3856 55.1349 15.3416 56.29 14.6087C57.445 13.8535 58.7999 13.4759 60.3547 13.4759C61.8873 13.4759 63.2089 13.8424 64.3195 14.5754C65.4301 15.2861 66.2853 16.2745 66.885 17.5406C67.4847 18.8066 67.7846 20.2503 67.7846 21.8718V23.1378H55.4237V23.9374C55.4237 25.4256 55.8679 26.6694 56.7564 27.6689C57.6671 28.6462 58.9221 29.1349 60.5213 29.1349C61.6097 29.1349 62.5537 28.8794 63.3533 28.3686C64.1752 27.8577 64.8082 27.1247 65.2524 26.1697L67.1515 27.5357C66.5962 28.6906 65.73 29.6346 64.5528 30.3676C63.3755 31.1006 61.9762 31.4671 60.3547 31.4671ZM55.4237 21.1388H64.9192V20.7723C64.9192 19.7506 64.7304 18.8621 64.3528 18.107C63.9752 17.3518 63.4422 16.7632 62.7536 16.3412C62.065 15.9191 61.2654 15.7081 60.3547 15.7081C59.3996 15.7081 58.5445 15.9302 57.7893 16.3745C57.0563 16.8187 56.4788 17.4406 56.0567 18.2402C55.6347 19.0176 55.4237 19.9061 55.4237 20.9056V21.1388Z" fill="#F04F23"/>
<path d="M35.4824 31.2628C37.578 31.2891 38.584 31.0003 40.4189 29.7657C41.1879 29.2484 41.5936 28.7801 41.7695 28.5831C41.9157 28.4194 41.8945 28.3915 41.8945 29.7657V30.9474H44.3896V12.7941L43.1416 13.5294C42.2188 14.081 41.8947 14.4227 41.8945 14.8429C41.8945 15.8295 41.9416 15.6456 40.5469 14.5275C38.5762 12.8202 36.2091 12.3608 33.7119 12.9249C31.0924 13.608 29.071 15.7629 28.1729 18.7579C26.3519 25.0367 29.9443 31.21 35.4824 31.2628ZM36.0361 28.9562C32.7637 28.9562 30.1104 25.8608 30.1104 22.0421C30.1105 18.2236 32.7637 15.1281 36.0361 15.1281C37.2685 15.1281 38.4123 15.5681 39.3604 16.3195C40.4634 17.1023 41.1637 18.1216 41.5361 19.4728C41.8089 20.2673 41.9609 21.1339 41.9609 22.0421C41.9609 25.8606 39.3085 28.956 36.0361 28.9562Z" fill="#F04F23"/>
</svg>
