<svg width="91" height="31" viewBox="0 0 91 31" fill="none" xmlns="http://www.w3.org/2000/svg">
<g clip-path="url(#clip0_9_40077)">
<mask id="mask0_9_40077" style="mask-type:luminance" maskUnits="userSpaceOnUse" x="0" y="0" width="30" height="31">
<path d="M0 30.632H29.1508V0.000976562H0V30.632Z" fill="white"/>
</mask>
<g mask="url(#mask0_9_40077)">
<path d="M11.2431 2.62739C11.2339 2.27736 11.2967 1.92919 11.4275 1.60438C11.5583 1.27958 11.7543 0.985047 12.0034 0.738997C12.2525 0.492947 12.5494 0.300606 12.8758 0.173866C13.2022 0.0471251 13.5512 -0.0113221 13.901 0.00213637C14.2405 0.00579856 14.5759 0.07656 14.888 0.210349C15.2 0.344138 15.4825 0.538312 15.7192 0.781698C15.9559 1.02508 16.1421 1.31287 16.2671 1.62851C16.3922 1.94414 16.4535 2.28139 16.4477 2.62084C16.4519 2.9735 16.3839 3.32327 16.2479 3.64868C16.1119 3.97409 15.9108 4.26825 15.657 4.51308C15.4031 4.75792 15.1019 4.94825 14.7718 5.07239C14.4417 5.19654 14.0896 5.25186 13.7374 5.23496C13.0622 5.21576 12.4218 4.9313 11.9549 4.44321C11.488 3.95513 11.2323 3.30273 11.2431 2.62739Z" fill="#252A2A"/>
<path d="M20.366 1.61456C20.8823 1.62647 21.3797 1.81126 21.7785 2.13933C22.1773 2.4674 22.4545 2.91979 22.5657 3.42409C22.6963 4.04558 22.6129 4.69296 22.3291 5.26107C22.0453 5.82918 21.5777 6.28463 21.0024 6.55344C20.7154 6.69088 20.4028 6.7666 20.0847 6.7757C19.7667 6.78481 19.4503 6.72709 19.1559 6.60629C18.8616 6.48549 18.5958 6.30428 18.3758 6.07438C18.1559 5.84448 17.9866 5.57099 17.8789 5.27158C17.6449 4.57441 17.6966 3.81292 18.0227 3.1538C18.3489 2.49467 18.9228 1.99158 19.619 1.75466C19.8647 1.69176 20.1142 1.64496 20.366 1.61456Z" fill="#252A2A"/>
<path d="M22.3125 9.40058C22.3303 8.94449 22.4609 8.49993 22.6926 8.10668C22.9243 7.71343 23.2499 7.38376 23.6402 7.14718C24.0807 6.8534 24.5945 6.68834 25.1237 6.67058C25.4933 6.63373 25.866 6.69615 26.2034 6.8514C26.5408 7.00664 26.8307 7.24909 27.0432 7.55373C27.2469 7.85528 27.3615 8.20808 27.374 8.57174C27.3865 8.93541 27.2964 9.29525 27.1139 9.61007C26.8807 10.1033 26.512 10.5201 26.0509 10.8116C25.5898 11.1032 25.0552 11.2575 24.5096 11.2566C24.0859 11.3061 23.6576 11.2154 23.2902 10.9985C22.9229 10.7815 22.6367 10.4502 22.4755 10.0553C22.4012 9.84248 22.3467 9.62333 22.3125 9.40058Z" fill="#252A2A"/>
<path d="M26.5298 17.279C25.8906 17.2678 25.2677 17.075 24.734 16.7232C24.4782 16.5693 24.2686 16.3492 24.1273 16.0862C23.986 15.8232 23.9183 15.5269 23.9312 15.2286C23.9442 14.9304 24.0373 14.6411 24.2008 14.3913C24.3643 14.1415 24.5922 13.9404 24.8603 13.8092C25.4887 13.4263 26.2312 13.2753 26.9592 13.3824C27.5706 13.432 28.1483 13.6825 28.6025 14.0946C28.7885 14.2601 28.9343 14.4657 29.0289 14.696C29.1234 14.9263 29.1642 15.1751 29.1481 15.4235C29.132 15.6719 29.0594 15.9133 28.936 16.1295C28.8125 16.3456 28.6413 16.5308 28.4355 16.6708C27.8772 17.0626 27.2119 17.2748 26.5298 17.279Z" fill="#252A2A"/>
<path d="M25.67 23.5612C25.0228 23.5376 24.3939 23.3401 23.8495 22.9894C23.305 22.6387 22.8651 22.1479 22.576 21.5684C22.4794 21.4077 22.4188 21.228 22.3984 21.0417C22.3779 20.8554 22.3981 20.6669 22.4575 20.4891C22.5169 20.3113 22.6142 20.1485 22.7426 20.012C22.871 19.8754 23.0274 19.7683 23.2012 19.698C23.639 19.5268 24.1188 19.4936 24.576 19.603C25.258 19.7351 25.889 20.0566 26.3967 20.5307C26.8206 20.896 27.1185 21.3859 27.2477 21.9304C27.2867 22.0899 27.2937 22.2555 27.2684 22.4177C27.243 22.5798 27.1858 22.7354 27.1001 22.8754C27.0143 23.0153 26.9017 23.137 26.7687 23.2332C26.6358 23.3295 26.4851 23.3984 26.3253 23.4362C26.1093 23.4912 25.8867 23.5206 25.6706 23.5612" fill="#252A2A"/>
<path d="M18.3375 25.2235C18.3282 25.0251 18.3608 24.8271 18.4333 24.6422C18.5057 24.4573 18.6163 24.2897 18.7578 24.1505C18.928 24.0168 19.1346 23.9375 19.3505 23.9231C19.5664 23.9086 19.7817 23.9595 19.9683 24.0693C20.8212 24.4906 21.4737 25.2311 21.7844 26.1302C22.0194 26.6532 22.0956 27.2337 22.0037 27.7996C21.9894 27.968 21.9337 28.1302 21.8413 28.2717C21.749 28.4133 21.623 28.5297 21.4746 28.6105C21.3262 28.6913 21.1601 28.7341 20.9911 28.7349C20.8222 28.7358 20.6556 28.6947 20.5064 28.6154C19.8636 28.3432 19.3282 27.8669 18.983 27.2602C18.5815 26.655 18.3579 25.9494 18.3375 25.2235Z" fill="#252A2A"/>
<path d="M12.5251 28.1015C12.5029 27.3192 12.7015 26.5464 13.098 25.8716C13.167 25.7284 13.2756 25.608 13.4109 25.5245C13.5462 25.4411 13.7027 25.3982 13.8616 25.4009C14.0206 25.4036 14.1755 25.4517 14.3079 25.5397C14.4403 25.6276 14.5448 25.7517 14.6089 25.8972C14.9108 26.3846 15.0869 26.9393 15.1216 27.5116C15.2267 28.3283 15.0949 29.158 14.7418 29.9018C14.6564 30.0688 14.5461 30.2218 14.4145 30.3555C14.3396 30.4458 14.2449 30.5176 14.1377 30.5653C14.0306 30.613 13.9138 30.6353 13.7966 30.6305C13.6794 30.6257 13.5649 30.5939 13.462 30.5376C13.3591 30.4812 13.2706 30.4019 13.2034 30.3058C12.9151 29.9479 12.7254 29.5209 12.6528 29.0671C12.5788 28.7162 12.5572 28.3548 12.5251 28.1015Z" fill="#252A2A"/>
<path d="M6.58671 25.8736C6.92191 25.2705 7.39979 24.7587 7.97855 24.3829C8.55597 24.0615 8.973 24.326 8.96056 24.9911C8.93365 25.4945 8.79738 25.986 8.56121 26.4314C8.26061 27.0963 7.79996 27.6764 7.22043 28.1198C7.09159 28.2132 6.95006 28.2878 6.80013 28.3411C6.71627 28.3832 6.6228 28.4024 6.52914 28.3969C6.43548 28.3913 6.34495 28.3611 6.26666 28.3094C6.18838 28.2577 6.12513 28.1862 6.08327 28.1023C6.04142 28.0183 6.02244 27.9248 6.02827 27.8311C6.00372 27.4318 6.073 27.0322 6.23056 26.6645C6.34186 26.3666 6.49243 26.0805 6.58671 25.8736Z" fill="#252A2A"/>
<path d="M2.28524 21.0886C2.65706 20.7822 3.11034 20.591 3.58935 20.5387C3.68805 20.5215 3.78957 20.5319 3.88274 20.5687C3.9759 20.6056 4.05709 20.6674 4.11735 20.7474C4.1776 20.8275 4.2146 20.9226 4.22424 21.0223C4.23389 21.122 4.21582 21.2224 4.17202 21.3125C4.05631 21.6467 3.85656 21.9454 3.59197 22.18C3.2372 22.5412 2.78224 22.7877 2.28589 22.8877C2.17101 22.9075 2.05375 22.9095 1.93826 22.8936C1.86414 22.8888 1.79202 22.8676 1.72709 22.8315C1.66216 22.7954 1.60604 22.7454 1.56277 22.6851C1.5195 22.6247 1.49016 22.5555 1.47686 22.4824C1.46357 22.4093 1.46665 22.3342 1.48588 22.2625C1.54399 21.9841 1.67607 21.7265 1.86821 21.5168C2.00896 21.3472 2.17525 21.1999 2.28524 21.0886Z" fill="#252A2A"/>
<path d="M1.06763 14.7172C1.40982 14.6868 1.75344 14.7572 2.05619 14.9195C2.12111 14.9492 2.17658 14.9962 2.2165 15.0553C2.25641 15.1145 2.27922 15.1835 2.2824 15.2548C2.28558 15.3261 2.26902 15.3969 2.23453 15.4594C2.20005 15.5219 2.14898 15.5736 2.08696 15.6089C1.88439 15.7585 1.6468 15.8537 1.39693 15.8852C1.04271 15.9547 0.675773 15.9164 0.343556 15.7752C0.268035 15.7404 0.198272 15.6942 0.136678 15.6384C0.0950959 15.6057 0.0612794 15.5641 0.0376607 15.5168C0.014042 15.4694 0.00120804 15.4174 8.123e-05 15.3646C-0.00104558 15.3117 0.00956297 15.2592 0.0311441 15.2109C0.0527252 15.1625 0.0847426 15.1196 0.124894 15.0852C0.270776 14.945 0.451675 14.8466 0.648635 14.8004C0.799865 14.7572 0.956988 14.7349 1.06632 14.7166" fill="#252A2A"/>
<path d="M3.15151 8.56589C3.37176 8.75014 3.53333 8.99477 3.61633 9.26967C3.63607 9.32557 3.64026 9.38578 3.62846 9.44387C3.61665 9.50196 3.58929 9.55576 3.5493 9.59951C3.5093 9.64327 3.45818 9.67535 3.40138 9.69231C3.34458 9.70928 3.28424 9.71051 3.2268 9.69587C3.01868 9.66449 2.8221 9.58018 2.65592 9.45102C2.40556 9.28267 2.2113 9.04327 2.09814 8.76361C2.0742 8.69843 2.06029 8.63 2.05689 8.56066C2.05152 8.51668 2.05599 8.47206 2.06997 8.43002C2.08394 8.38798 2.10708 8.34956 2.13772 8.31755C2.16835 8.28554 2.2057 8.26074 2.24709 8.24493C2.28848 8.22911 2.33286 8.22269 2.37703 8.22612C2.5464 8.22974 2.71168 8.2788 2.8556 8.36818C2.97017 8.43365 3.07426 8.51352 3.15151 8.56458" fill="#252A2A"/>
</g>
<path d="M42.6255 22.221C41.1979 22.221 39.9273 21.8927 38.8138 21.236C37.7002 20.565 36.8294 19.6513 36.2012 18.4949C35.5731 17.3243 35.259 15.9823 35.259 14.4691C35.259 12.9558 35.5731 11.621 36.2012 10.4646C36.8294 9.29395 37.6931 8.38028 38.7924 7.72357C39.8916 7.05259 41.1551 6.7171 42.5827 6.7171C43.5106 6.7171 44.3958 6.88842 45.2381 7.23105C46.0804 7.5594 46.8298 8.02337 47.4866 8.62297C48.1575 9.2083 48.6715 9.89355 49.0284 10.6787L47.1439 11.5353C46.8727 10.95 46.5015 10.4432 46.0304 10.0149C45.5593 9.58661 45.0239 9.25112 44.4243 9.00843C43.839 8.76573 43.2251 8.64439 42.5827 8.64439C41.5834 8.64439 40.6911 8.89422 39.9059 9.39389C39.1207 9.89355 38.5068 10.5788 38.0643 11.4497C37.6217 12.3205 37.4004 13.327 37.4004 14.4691C37.4004 15.6112 37.6217 16.6248 38.0643 17.5099C38.5211 18.395 39.1421 19.0874 39.9273 19.5871C40.7268 20.0725 41.6333 20.3152 42.6469 20.3152C43.3036 20.3152 43.9246 20.1867 44.51 19.9297C45.0953 19.6584 45.6164 19.2944 46.0732 18.8376C46.5443 18.3665 46.9226 17.8311 47.2082 17.2315L49.0926 18.0667C48.7357 18.8804 48.2289 19.6013 47.5722 20.2295C46.9155 20.8576 46.1589 21.3502 45.3023 21.7071C44.46 22.0497 43.5677 22.221 42.6255 22.221ZM54.6535 22.221C53.6113 22.221 52.6905 21.9855 51.891 21.5144C51.0916 21.029 50.4634 20.3651 50.0066 19.5228C49.5497 18.6805 49.3213 17.7098 49.3213 16.6105C49.3213 15.5112 49.5497 14.5404 50.0066 13.6981C50.4634 12.8559 51.0916 12.1992 51.891 11.728C52.7048 11.2426 53.6327 11 54.6749 11C55.6599 11 56.5236 11.2498 57.266 11.7495C58.0084 12.2348 58.5866 12.9344 59.0006 13.848C59.4288 14.7474 59.643 15.811 59.643 17.0388H50.9916L51.3771 16.7176C51.3771 17.4742 51.527 18.1309 51.8268 18.6877C52.1266 19.2444 52.5335 19.6727 53.0474 19.9725C53.5613 20.258 54.1467 20.4008 54.8034 20.4008C55.5172 20.4008 56.1096 20.2366 56.5807 19.9083C57.0661 19.5657 57.4445 19.1374 57.7157 18.6234L59.4717 19.4372C59.1861 19.9939 58.815 20.4865 58.3581 20.9148C57.9013 21.3288 57.3588 21.65 56.7306 21.8784C56.1168 22.1068 55.4244 22.221 54.6535 22.221ZM51.5056 15.7539L51.0987 15.4327H57.8656L57.4801 15.7539C57.4801 15.1258 57.3517 14.5904 57.0947 14.1478C56.8377 13.691 56.4951 13.3484 56.0668 13.12C55.6385 12.8773 55.1603 12.7559 54.6321 12.7559C54.1181 12.7559 53.6184 12.8773 53.1331 13.12C52.6619 13.3484 52.2693 13.6839 51.9553 14.1264C51.6555 14.569 51.5056 15.1115 51.5056 15.7539ZM61.6099 16.2036C61.6099 15.0472 61.8312 14.105 62.2738 13.3769C62.7163 12.6489 63.2874 12.1064 63.9869 11.7495C64.6864 11.3925 65.4217 11.2141 66.1926 11.2141V13.1414C65.5501 13.1414 64.9363 13.2413 64.3509 13.4412C63.7799 13.6268 63.3088 13.9408 62.9376 14.3834C62.5807 14.8117 62.4022 15.397 62.4022 16.1394L61.6099 16.2036ZM60.3679 21.9641V11.2569H62.4022V21.9641H60.3679ZM66.6772 21.9641V11.2569H68.7116V21.9641H66.6772ZM67.7051 8.98702C67.3768 8.98702 67.0912 8.86567 66.8485 8.62297C66.6059 8.366 66.4845 8.07334 66.4845 7.74499C66.4845 7.40236 66.6059 7.11684 66.8485 6.88842C67.0912 6.64572 67.3768 6.52438 67.7051 6.52438C68.0477 6.52438 68.3333 6.64572 68.5617 6.88842C68.8044 7.11684 68.9257 7.40236 68.9257 7.74499C68.9257 8.07334 68.8044 8.366 68.5617 8.62297C68.3333 8.86567 68.0477 8.98702 67.7051 8.98702ZM70.4083 21.9641V11.2569H72.3142L72.4427 13.227V21.9641H70.4083ZM77.8177 21.9641V16.482H79.852V21.9641H77.8177ZM77.8177 16.482C77.8177 15.5112 77.7035 14.776 77.475 14.2763C77.2609 13.7624 76.954 13.4055 76.5542 13.2056C76.1688 13.0058 75.7191 12.8987 75.2051 12.8844C74.3343 12.8844 73.6562 13.1913 73.1708 13.8052C72.6854 14.4191 72.4427 15.2828 72.4427 16.3963H71.5647C71.5647 15.2685 71.7289 14.3049 72.0572 13.5054C72.3999 12.6917 72.8781 12.0707 73.492 11.6424C74.1201 11.2141 74.8625 11 75.7191 11C76.5614 11 77.2894 11.1713 77.9033 11.5139C78.5315 11.8565 79.0097 12.3919 79.3381 13.12C79.6807 13.8338 79.852 14.776 79.852 15.9466V16.482H77.8177ZM87.7013 21.9641L87.6157 20.101V16.3749C87.6157 15.5897 87.5229 14.933 87.3373 14.4048C87.166 13.8766 86.8947 13.4769 86.5236 13.2056C86.1667 12.9344 85.6884 12.7988 85.0888 12.7988C84.532 12.7988 84.0466 12.913 83.6326 13.1414C83.2329 13.3698 82.8974 13.7267 82.6262 14.2121L80.8274 13.5268C81.0843 13.0414 81.4056 12.6132 81.791 12.242C82.1765 11.8565 82.6404 11.5567 83.1829 11.3426C83.7254 11.1142 84.3607 11 85.0888 11C86.1024 11 86.9447 11.1998 87.6157 11.5996C88.2867 11.9993 88.7863 12.5775 89.1147 13.3341C89.4573 14.0907 89.6215 15.0258 89.6072 16.1394L89.5858 21.9641H87.7013ZM84.5534 22.221C83.2829 22.221 82.2907 21.9355 81.5769 21.3645C80.8773 20.7791 80.5276 19.9725 80.5276 18.9446C80.5276 17.8454 80.8916 17.0102 81.6197 16.4392C82.3621 15.8539 83.3899 15.5612 84.7033 15.5612H87.6799V17.1673H85.2601C84.2751 17.1673 83.5827 17.3243 83.1829 17.6384C82.7832 17.9382 82.5833 18.3593 82.5833 18.9018C82.5833 19.4015 82.7689 19.7941 83.1401 20.0796C83.5256 20.3508 84.0538 20.4865 84.7248 20.4865C85.3101 20.4865 85.8169 20.3651 86.2452 20.1224C86.6735 19.8655 87.0089 19.5085 87.2516 19.0517C87.4943 18.5949 87.6157 18.0738 87.6157 17.4885H88.3224C88.3224 18.9446 88.0083 20.101 87.3801 20.9576C86.7663 21.7999 85.824 22.221 84.5534 22.221Z" fill="#252A2A"/>
</g>
<defs>
<clipPath id="clip0_9_40077">
<rect width="91" height="30.7698" fill="white"/>
</clipPath>
</defs>
</svg>
