<svg width="83" height="33" viewBox="0 0 83 33" fill="none" xmlns="http://www.w3.org/2000/svg">
<g clip-path="url(#clip0_9_40215)">
<path d="M32.0392 16.4949C32.0392 25.0853 25.076 32.0493 16.4848 32.0493C7.89441 32.0493 0.929688 25.0853 0.929688 16.4949C0.929688 7.90379 7.89441 0.939819 16.4848 0.939819C25.076 0.939819 32.0392 7.90379 32.0392 16.4949Z" fill="white"/>
<path d="M69.8379 8.38601H66.2568V24.7134H69.8379C75.3017 24.7134 78.3479 21.4831 78.3479 16.5497C78.3479 11.5795 75.3535 8.38601 69.8379 8.38601ZM70.0775 28.1203H64.3802C63.3382 28.1203 62.5043 27.3345 62.5043 26.2444V6.82194C62.5043 5.77922 63.3382 4.98065 64.3802 4.98065H70.0775C77.801 4.98065 82.0658 10.1574 82.0658 16.5497C82.0658 22.9442 77.7552 28.1203 70.0775 28.1203ZM51.661 17.5924H44.8202V24.6811H51.661C54.4015 24.6811 55.6598 22.9089 55.6598 21.1368C55.6598 19.3653 54.4187 17.5924 51.661 17.5924ZM50.8113 8.38601H44.8202V14.2231H50.8113C53.1875 14.2231 54.3061 12.9017 54.3061 11.3031C54.3061 9.67138 53.2566 8.38601 50.8113 8.38601ZM51.5265 28.1203H42.9428C41.9009 28.1203 41.1016 27.2864 41.1016 26.2444V6.82194C41.1016 5.77922 41.9009 4.98065 42.9428 4.98065H50.9706C55.3818 4.98065 58.0224 7.54763 58.0224 10.8831C58.0224 14.2554 55.9618 15.4574 55.2436 15.7166C56.3577 15.9975 59.3777 17.2762 59.3777 21.4936C59.3777 25.1078 56.4629 28.1203 51.5265 28.1203Z" fill="#04589C"/>
<path d="M21.5234 12.2449C21.5497 12.2449 21.5745 12.2404 21.6022 12.2337C21.6669 12.2172 30.6239 10.0032 30.6239 10.0032C29.3888 7.31832 27.4131 5.04582 24.9573 3.44794C24.9573 3.44794 21.4738 12.0391 21.4557 12.0819C21.4415 12.118 21.4377 12.1405 21.4377 12.1585C21.4377 12.2081 21.476 12.2449 21.5234 12.2449ZM18.2675 10.1167C18.281 10.1895 18.3238 10.2136 18.3629 10.2136C18.4012 10.2136 18.432 10.1881 18.4748 10.1437C18.6822 9.92511 24.8604 3.38559 24.8604 3.38559C22.4571 1.84705 19.6039 0.951576 16.5412 0.940308C16.5412 0.940308 18.1864 9.68772 18.2675 10.1167ZM23.0987 15.6788C23.1505 15.6961 31.8867 18.6763 31.8867 18.6763C31.9873 17.9634 32.0392 17.2354 32.0392 16.4947C32.0392 14.2199 31.5509 12.0594 30.6734 10.1114C30.6734 10.1114 23.1115 15.4452 23.0649 15.4783C23.0191 15.5113 22.998 15.5406 22.998 15.5752C22.998 15.636 23.0461 15.6616 23.0987 15.6788ZM11.5304 12.1585C11.5304 12.1405 11.5276 12.118 11.5124 12.0819C11.4951 12.0391 8.01161 3.44794 8.01161 3.44794C5.55581 5.04582 3.5793 7.31832 2.34427 10.0032C2.34427 10.0032 11.3013 12.2171 11.3666 12.2337C11.3944 12.2404 11.4185 12.2449 11.4455 12.2449C11.4921 12.2449 11.5304 12.2081 11.5304 12.1585ZM16.4277 0.940308C13.3649 0.951576 10.511 1.84705 8.10852 3.38559C8.10852 3.38559 14.2859 9.92511 14.494 10.1437C14.5369 10.1881 14.5677 10.2136 14.606 10.2136C14.645 10.2136 14.6871 10.1895 14.7014 10.1167C14.7825 9.68772 16.4277 0.940308 16.4277 0.940308ZM9.86942 15.6788C9.81758 15.6961 1.08144 18.6763 1.08144 18.6763C0.981523 17.9634 0.929688 17.2354 0.929688 16.4947C0.929688 14.2199 1.41799 12.0594 2.29544 10.1114C2.29544 10.1114 9.8574 15.4452 9.90322 15.4783C9.94982 15.5113 9.97008 15.5406 9.97008 15.5752C9.97008 15.636 9.92202 15.6616 9.86942 15.6788Z" fill="#F26925"/>
<path d="M16.4895 32.0493C24.2851 32.0493 30.7404 26.3151 31.8688 18.8357L26.0715 19.6441C25.9821 19.6561 25.9453 19.7034 25.9235 19.7665C24.7741 23.1155 21.8781 25.6637 18.2864 26.3173C19.6544 25.651 20.5972 24.2469 20.5972 22.6227C20.5972 20.354 18.7582 18.515 16.4895 18.515C14.2215 18.515 12.3817 20.354 12.3817 22.6227C12.3817 24.2469 13.3245 25.651 14.6925 26.3173C11.1008 25.6637 8.20406 23.1155 7.05467 19.7665C7.03286 19.7034 6.99682 19.6561 6.90742 19.6441L1.10938 18.8357C2.23848 26.3151 8.69387 32.0493 16.4895 32.0493Z" fill="#F26925"/>
</g>
<defs>
<clipPath id="clip0_9_40215">
<rect width="83" height="32.9893" fill="white"/>
</clipPath>
</defs>
</svg>
