<svg width="70" height="35" viewBox="0 0 70 35" fill="none" xmlns="http://www.w3.org/2000/svg">
<path d="M22.4288 3.09441L4.97914 11.9929L2.75008 13.0197L0.304688 14.3982L0.381274 11.227L7.42454 7.75203L22.4288 0L33.39 9.80306V10.7221L31.0924 11.7943V10.7221L22.4288 3.09441Z" fill="#2495FF"/>
<path d="M0.148271 31.9295C0.148271 31.5251 0.471772 31.2589 0.957024 31.2589C1.39173 31.2589 1.67816 31.5016 1.71523 31.9059H1.46923C1.44228 31.633 1.25694 31.478 0.953654 31.478C0.613304 31.478 0.390897 31.6532 0.390897 31.9261C0.390897 32.1384 0.51558 32.2732 0.768315 32.3373L1.1828 32.4384C1.56022 32.5293 1.75567 32.745 1.75567 33.0719C1.75567 33.4897 1.43217 33.756 0.933435 33.756C0.465033 33.756 0.148271 33.51 0.117943 33.1157H0.367309C0.380788 33.3684 0.603195 33.5335 0.933435 33.5335C1.28726 33.5335 1.51304 33.3617 1.51304 33.0854C1.51304 32.8697 1.39173 32.7282 1.13225 32.6675L0.724508 32.5664C0.34709 32.4754 0.148271 32.2598 0.148271 31.9295ZM2.37395 33.7121H2.14143V31.2589H2.37395V32.3676C2.47841 32.1721 2.67723 32.0407 2.95018 32.0407C3.37815 32.0407 3.57023 32.3069 3.57023 32.7181V33.7155H3.33771V32.7686C3.33771 32.3878 3.15911 32.253 2.90638 32.253C2.55592 32.253 2.37395 32.5125 2.37395 32.8259V33.7121ZM4.50206 33.756C4.15497 33.756 3.94941 33.5605 3.94941 33.2741C3.94941 32.9742 4.17856 32.7854 4.55934 32.7551L5.09851 32.7113V32.6574C5.09851 32.3373 4.90643 32.2362 4.66718 32.2362C4.38411 32.2362 4.21562 32.3642 4.21562 32.5833H4.00333C4.00333 32.253 4.27291 32.0407 4.67392 32.0407C5.05133 32.0407 5.32766 32.2294 5.32766 32.6608V33.7155H5.13221L5.10188 33.4291C5.00079 33.6346 4.77838 33.756 4.50206 33.756ZM4.55597 33.5672C4.89969 33.5672 5.09851 33.328 5.09851 32.9742V32.8865L4.61663 32.9236C4.30998 32.9506 4.18529 33.0854 4.18529 33.2673C4.18529 33.4661 4.33357 33.5672 4.55597 33.5672ZM5.79424 34.4265V32.0845H5.99643L6.02002 32.4148C6.13459 32.162 6.36374 32.0407 6.6367 32.0407C7.10847 32.0407 7.39153 32.4013 7.39153 32.8933C7.39153 33.3853 7.11858 33.756 6.6367 33.756C6.36037 33.756 6.14133 33.638 6.02676 33.4021V34.4265H5.79424ZM6.03013 32.9C6.03013 33.2741 6.23906 33.547 6.59626 33.547C6.95009 33.547 7.15564 33.2741 7.15564 32.9C7.15564 32.5226 6.95009 32.253 6.59626 32.253C6.23906 32.253 6.03013 32.5226 6.03013 32.9ZM7.87673 31.6363C7.78237 31.6363 7.70487 31.5588 7.70487 31.4645C7.70487 31.3701 7.78237 31.2893 7.87673 31.2893C7.97108 31.2893 8.05196 31.3701 8.05196 31.4645C8.05196 31.5588 7.97108 31.6363 7.87673 31.6363ZM7.76216 33.7155V32.0845H7.99467V33.7155H7.76216ZM8.71207 33.7155H8.47956V32.0845H8.68174L8.71544 32.3676C8.82328 32.1587 9.03894 32.0407 9.27483 32.0407C9.72301 32.0407 9.90835 32.3069 9.90835 32.7181V33.7155H9.67584V32.7686C9.67584 32.3878 9.50398 32.253 9.23439 32.253C8.90078 32.253 8.71207 32.4956 8.71207 32.863V33.7155ZM10.2606 32.8528C10.2606 32.408 10.547 32.0407 11.0255 32.0407C11.3086 32.0407 11.5243 32.1721 11.6287 32.4114L11.6523 32.0845H11.8545V33.665C11.8545 34.1502 11.5445 34.467 11.066 34.467C10.6481 34.467 10.3549 34.2311 10.2909 33.8368H10.5234C10.574 34.0997 10.7762 34.2547 11.0693 34.2547C11.4029 34.2547 11.6253 34.0289 11.6253 33.6886V33.301C11.5141 33.5302 11.2884 33.665 11.0087 33.665C10.5436 33.665 10.2606 33.2977 10.2606 32.8528ZM10.4931 32.8495C10.4931 33.1831 10.6986 33.456 11.0424 33.456C11.3962 33.456 11.6051 33.1999 11.6051 32.8495C11.6051 32.5024 11.4029 32.2463 11.0457 32.2463C10.6953 32.2463 10.4931 32.5192 10.4931 32.8495ZM13.0721 31.5251V31.3027H14.8008V31.5251H14.0561V33.7155H13.8135V31.5251H13.0721ZM15.3168 33.7121H15.0842V31.2589H15.3168V32.3676C15.4212 32.1721 15.62 32.0407 15.893 32.0407C16.321 32.0407 16.513 32.3069 16.513 32.7181V33.7155H16.2805V32.7686C16.2805 32.3878 16.1019 32.253 15.8492 32.253C15.4987 32.253 15.3168 32.5125 15.3168 32.8259V33.7121ZM17.6605 33.756C17.182 33.756 16.8619 33.4122 16.8619 32.9C16.8619 32.3912 17.1786 32.0407 17.6437 32.0407C18.0851 32.0407 18.385 32.3541 18.385 32.8158V32.9304H17.0877C17.1045 33.328 17.3134 33.5571 17.6639 33.5571C17.9301 33.5571 18.102 33.4426 18.1626 33.2269H18.385C18.2974 33.5706 18.0447 33.756 17.6605 33.756ZM17.6437 32.2395C17.337 32.2395 17.1348 32.4417 17.0944 32.7619H18.1525C18.1525 32.4485 17.9503 32.2395 17.6437 32.2395ZM20.9719 32.654H19.9846V33.7155H19.7419V31.3027H21.164V31.5251H19.9846V32.435H20.9719V32.654ZM22.5648 32.0845H22.7973V33.7155H22.5951L22.5648 33.4392C22.4738 33.6279 22.248 33.756 21.9919 33.756C21.6078 33.756 21.3989 33.4931 21.3989 33.0955V32.0812H21.6347V33.0213C21.6347 33.4089 21.8066 33.547 22.0661 33.547C22.3795 33.547 22.5648 33.3381 22.5648 32.9506V32.0845ZM23.6557 33.7155H23.4266V32.28H23.0997V32.0845H23.4266V31.569H23.6557V32.0845H23.9826V32.28H23.6557V33.7155ZM25.4311 32.0845H25.6636V33.7155H25.4614L25.4311 33.4392C25.3401 33.6279 25.1144 33.756 24.8582 33.756C24.4741 33.756 24.2652 33.4931 24.2652 33.0955V32.0812H24.501V33.0213C24.501 33.4089 24.6729 33.547 24.9324 33.547C25.2458 33.547 25.4311 33.3381 25.4311 32.9506V32.0845ZM27.0005 32.0643V32.2732H26.8725C26.5726 32.2732 26.3805 32.4754 26.3805 32.7854V33.7155H26.148V32.0845H26.367L26.3839 32.3373C26.4479 32.162 26.6198 32.0475 26.8489 32.0475C26.8995 32.0475 26.9433 32.0508 27.0005 32.0643ZM27.9312 33.756C27.4527 33.756 27.1325 33.4122 27.1325 32.9C27.1325 32.3912 27.4493 32.0407 27.9143 32.0407C28.3558 32.0407 28.6557 32.3541 28.6557 32.8158V32.9304H27.3583C27.3752 33.328 27.5841 33.5571 27.9346 33.5571C28.2008 33.5571 28.3726 33.4426 28.4333 33.2269H28.6557C28.5681 33.5706 28.3153 33.756 27.9312 33.756ZM27.9143 32.2395C27.6077 32.2395 27.4055 32.4417 27.3651 32.7619H28.4232C28.4232 32.4485 28.221 32.2395 27.9143 32.2395ZM32.1625 32.5091C32.1625 33.2404 31.6874 33.756 31.0134 33.756C30.3361 33.756 29.8643 33.2404 29.8643 32.5091C29.8643 31.7779 30.3395 31.2589 31.0134 31.2589C31.6908 31.2589 32.1625 31.7745 32.1625 32.5091ZM31.9132 32.5091C31.9132 31.9059 31.5459 31.4948 31.0134 31.4948C30.481 31.4948 30.1171 31.9059 30.1171 32.5091C30.1171 33.1123 30.481 33.5234 31.0134 33.5234C31.5459 33.5234 31.9132 33.109 31.9132 32.5091ZM32.37 32.0845H32.6193V31.7678C32.6193 31.4005 32.8215 31.2589 33.0709 31.2589C33.1282 31.2589 33.1956 31.2623 33.2495 31.2724V31.4712H33.1113C32.9058 31.4712 32.8518 31.5757 32.8518 31.7678V32.0845H33.236V32.28H32.8518V33.7155H32.6193V32.28H32.37V32.0845ZM34.7801 33.7155H34.5375V31.3027H35.4372C35.9258 31.3027 36.2224 31.5723 36.2224 32.0003C36.2224 32.3474 36.0404 32.59 35.7304 32.6742L36.246 33.7155H35.9764L35.4844 32.7147H34.7801V33.7155ZM34.7801 31.5218V32.4956H35.444C35.7776 32.4956 35.973 32.3137 35.973 32.007C35.973 31.6936 35.7675 31.5218 35.4372 31.5218H34.7801ZM37.208 33.756C36.7295 33.756 36.4094 33.4122 36.4094 32.9C36.4094 32.3912 36.7261 32.0407 37.1912 32.0407C37.6326 32.0407 37.9325 32.3541 37.9325 32.8158V32.9304H36.6352C36.652 33.328 36.8609 33.5571 37.2114 33.5571C37.4776 33.5571 37.6495 33.4426 37.7101 33.2269H37.9325C37.8449 33.5706 37.5922 33.756 37.208 33.756ZM37.1912 32.2395C36.8845 32.2395 36.6823 32.4417 36.6419 32.7619H37.7C37.7 32.4485 37.4978 32.2395 37.1912 32.2395ZM38.7562 33.756C38.4091 33.756 38.2036 33.5605 38.2036 33.2741C38.2036 32.9742 38.4327 32.7854 38.8135 32.7551L39.3527 32.7113V32.6574C39.3527 32.3373 39.1606 32.2362 38.9214 32.2362C38.6383 32.2362 38.4698 32.3642 38.4698 32.5833H38.2575C38.2575 32.253 38.5271 32.0407 38.9281 32.0407C39.3055 32.0407 39.5818 32.2294 39.5818 32.6608V33.7155H39.3864L39.3561 33.4291C39.255 33.6346 39.0326 33.756 38.7562 33.756ZM38.8101 33.5672C39.1539 33.5672 39.3527 33.328 39.3527 32.9742V32.8865L38.8708 32.9236C38.5642 32.9506 38.4395 33.0854 38.4395 33.2673C38.4395 33.4661 38.5877 33.5672 38.8101 33.5672ZM40.291 33.7155H40.0585V31.2589H40.291V33.7155ZM43.2163 33.7155H41.7707V31.3027H43.213V31.5251H42.0133V32.3946H43.1018V32.6136H42.0133V33.4931H43.2163V33.7155ZM43.5203 33.2572H43.7427C43.7427 33.4459 43.8842 33.5639 44.1134 33.5639C44.3661 33.5639 44.5144 33.456 44.5144 33.2808C44.5144 33.146 44.447 33.0685 44.2549 33.0213L43.9752 32.9506C43.6922 32.8798 43.554 32.7315 43.554 32.5091C43.554 32.2227 43.7932 32.0407 44.1437 32.0407C44.4874 32.0407 44.7098 32.2294 44.7199 32.5327H44.4942C44.4874 32.344 44.356 32.2328 44.137 32.2328C43.9078 32.2328 43.7798 32.3305 43.7798 32.5058C43.7798 32.6304 43.8674 32.7181 44.046 32.7619L44.3257 32.8326C44.6087 32.9034 44.7368 33.0348 44.7368 33.2707C44.7368 33.5639 44.4874 33.756 44.1167 33.756C43.7494 33.756 43.5203 33.5605 43.5203 33.2572ZM45.4936 33.7155H45.2645V32.28H44.9376V32.0845H45.2645V31.569H45.4936V32.0845H45.8205V32.28H45.4936V33.7155ZM46.5654 33.756C46.2183 33.756 46.0127 33.5605 46.0127 33.2741C46.0127 32.9742 46.2419 32.7854 46.6226 32.7551L47.1618 32.7113V32.6574C47.1618 32.3373 46.9697 32.2362 46.7305 32.2362C46.4474 32.2362 46.2789 32.3642 46.2789 32.5833H46.0666C46.0666 32.253 46.3362 32.0407 46.7372 32.0407C47.1146 32.0407 47.391 32.2294 47.391 32.6608V33.7155H47.1955L47.1652 33.4291C47.0641 33.6346 46.8417 33.756 46.5654 33.756ZM46.6193 33.5672C46.963 33.5672 47.1618 33.328 47.1618 32.9742V32.8865L46.6799 32.9236C46.3733 32.9506 46.2486 33.0854 46.2486 33.2673C46.2486 33.4661 46.3969 33.5672 46.6193 33.5672ZM48.202 33.7155H47.9728V32.28H47.646V32.0845H47.9728V31.569H48.202V32.0845H48.5288V32.28H48.202V33.7155ZM49.4992 33.756C49.0207 33.756 48.7006 33.4122 48.7006 32.9C48.7006 32.3912 49.0174 32.0407 49.4824 32.0407C49.9238 32.0407 50.2238 32.3541 50.2238 32.8158V32.9304H48.9264C48.9432 33.328 49.1522 33.5571 49.5026 33.5571C49.7688 33.5571 49.9407 33.4426 50.0013 33.2269H50.2238C50.1361 33.5706 49.8834 33.756 49.4992 33.756ZM49.4824 32.2395C49.1757 32.2395 48.9736 32.4417 48.9331 32.7619H49.9912C49.9912 32.4485 49.789 32.2395 49.4824 32.2395ZM51.8233 31.3027V33.7155H51.5806V31.3027H51.8233ZM52.5919 33.7155H52.3594V32.0845H52.5616L52.5953 32.3676C52.7031 32.1587 52.9188 32.0407 53.1547 32.0407C53.6028 32.0407 53.7882 32.3069 53.7882 32.7181V33.7155H53.5557V32.7686C53.5557 32.3878 53.3838 32.253 53.1142 32.253C52.7806 32.253 52.5919 32.4956 52.5919 32.863V33.7155ZM54.6736 33.7155L54.0064 32.0845H54.2558L54.677 33.1359C54.7208 33.2539 54.7646 33.3651 54.7949 33.4729C54.8253 33.3617 54.8691 33.2539 54.9163 33.1359L55.3442 32.0845H55.5835L54.9061 33.7155H54.6736ZM56.4692 33.756C55.9907 33.756 55.6706 33.4122 55.6706 32.9C55.6706 32.3912 55.9873 32.0407 56.4524 32.0407C56.8938 32.0407 57.1937 32.3541 57.1937 32.8158V32.9304H55.8963C55.9132 33.328 56.1221 33.5571 56.4726 33.5571C56.7388 33.5571 56.9107 33.4426 56.9713 33.2269H57.1937C57.1061 33.5706 56.8534 33.756 56.4692 33.756ZM56.4524 32.2395C56.1457 32.2395 55.9435 32.4417 55.9031 32.7619H56.9612C56.9612 32.4485 56.759 32.2395 56.4524 32.2395ZM57.4273 33.2572H57.6497C57.6497 33.4459 57.7912 33.5639 58.0204 33.5639C58.2731 33.5639 58.4214 33.456 58.4214 33.2808C58.4214 33.146 58.354 33.0685 58.1619 33.0213L57.8822 32.9506C57.5992 32.8798 57.461 32.7315 57.461 32.5091C57.461 32.2227 57.7003 32.0407 58.0507 32.0407C58.3944 32.0407 58.6168 32.2294 58.627 32.5327H58.4012C58.3944 32.344 58.263 32.2328 58.044 32.2328C57.8148 32.2328 57.6868 32.3305 57.6868 32.5058C57.6868 32.6304 57.7744 32.7181 57.953 32.7619L58.2327 32.8326C58.5158 32.9034 58.6438 33.0348 58.6438 33.2707C58.6438 33.5639 58.3944 33.756 58.0238 33.756C57.6565 33.756 57.4273 33.5605 57.4273 33.2572ZM59.4006 33.7155H59.1715V32.28H58.8446V32.0845H59.1715V31.569H59.4006V32.0845H59.7275V32.28H59.4006V33.7155ZM60.1449 31.6363C60.0505 31.6363 59.973 31.5588 59.973 31.4645C59.973 31.3701 60.0505 31.2893 60.1449 31.2893C60.2392 31.2893 60.3201 31.3701 60.3201 31.4645C60.3201 31.5588 60.2392 31.6363 60.1449 31.6363ZM60.0303 33.7155V32.0845H60.2628V33.7155H60.0303ZM60.9802 33.7155H60.7477V32.0845H60.9499L60.9836 32.3676C61.0914 32.1587 61.3071 32.0407 61.543 32.0407C61.9912 32.0407 62.1765 32.3069 62.1765 32.7181V33.7155H61.944V32.7686C61.944 32.3878 61.7721 32.253 61.5025 32.253C61.1689 32.253 60.9802 32.4956 60.9802 32.863V33.7155ZM62.5287 32.8528C62.5287 32.408 62.8151 32.0407 63.2937 32.0407C63.5767 32.0407 63.7924 32.1721 63.8969 32.4114L63.9204 32.0845H64.1226V33.665C64.1226 34.1502 63.8126 34.467 63.3341 34.467C62.9162 34.467 62.6231 34.2311 62.559 33.8368H62.7916C62.8421 34.0997 63.0443 34.2547 63.3375 34.2547C63.6711 34.2547 63.8935 34.0289 63.8935 33.6886V33.301C63.7823 33.5302 63.5565 33.665 63.2768 33.665C62.8118 33.665 62.5287 33.2977 62.5287 32.8528ZM62.7612 32.8495C62.7612 33.1831 62.9668 33.456 63.3105 33.456C63.6643 33.456 63.8733 33.1999 63.8733 32.8495C63.8733 32.5024 63.6711 32.2463 63.3139 32.2463C62.9634 32.2463 62.7612 32.5192 62.7612 32.8495Z" fill="black"/>
<path d="M3.07595 30.2626H0.723215V16.8262H5.85144C8.90265 16.8262 10.6856 18.3702 10.6856 21.0171C10.6856 22.8184 9.84006 24.105 8.25932 24.7484L10.8142 30.2626H8.24094L5.96173 25.2446H3.07595V30.2626ZM3.07595 18.9217V23.1676H5.85144C7.34028 23.1676 8.22256 22.3772 8.22256 21.0171C8.22256 19.6753 7.34028 18.9217 5.85144 18.9217H3.07595ZM16.122 30.5015C13.42 30.5015 11.5268 28.5348 11.5268 25.7225C11.5268 22.8735 13.3832 20.9068 16.0484 20.9068C18.7688 20.9068 20.4966 22.7265 20.4966 25.5571V26.2372L13.659 26.2556C13.8244 27.8547 14.6699 28.6634 16.1587 28.6634C17.3902 28.6634 18.199 28.1855 18.4563 27.3217H20.5333C20.1474 29.3068 18.4931 30.5015 16.122 30.5015ZM16.0668 22.7448C14.7434 22.7448 13.9347 23.4617 13.7141 24.8219H18.2725C18.2725 23.572 17.4086 22.7448 16.0668 22.7448ZM24.9035 30.5015C22.9735 30.5015 21.7972 29.3803 21.7972 27.6709C21.7972 25.9982 23.0103 24.9505 25.1608 24.7851L27.8812 24.5829V24.3807C27.8812 23.1492 27.146 22.6529 26.0064 22.6529C24.6829 22.6529 23.9477 23.2044 23.9477 24.1602H22.0361C22.0361 22.1934 23.6536 20.9068 26.1166 20.9068C28.5613 20.9068 30.0685 22.2302 30.0685 24.7484V30.2626H28.1018L27.9363 28.9208C27.5503 29.8582 26.3188 30.5015 24.9035 30.5015ZM25.6387 28.8105C27.0173 28.8105 27.8996 27.9834 27.8996 26.5864V26.1085L26.0064 26.2556C24.6094 26.3842 24.0764 26.8438 24.0764 27.579C24.0764 28.4061 24.6278 28.8105 25.6387 28.8105ZM34.5323 30.2626H32.3082V16.5873H34.5323V30.2626Z" fill="#2495FF"/>
<path d="M40.9467 30.5015C38.2448 30.5015 36.3516 28.5348 36.3516 25.7225C36.3516 22.8735 38.208 20.9068 40.8732 20.9068C43.5936 20.9068 45.3214 22.7265 45.3214 25.5571V26.2372L38.4837 26.2556C38.6492 27.8547 39.4947 28.6634 40.9835 28.6634C42.215 28.6634 43.0238 28.1855 43.2811 27.3217H45.3581C44.9721 29.3068 43.3179 30.5015 40.9467 30.5015ZM40.8916 22.7448C39.5682 22.7448 38.7594 23.4617 38.5389 24.8219H43.0973C43.0973 23.572 42.2334 22.7448 40.8916 22.7448ZM46.4176 27.5055H48.5498C48.5681 28.2958 49.1563 28.7921 50.1857 28.7921C51.2334 28.7921 51.8032 28.3694 51.8032 27.7076C51.8032 27.2481 51.5642 26.9173 50.7555 26.7335L49.1196 26.3475C47.4837 25.9799 46.6933 25.2079 46.6933 23.7558C46.6933 21.9729 48.2005 20.9068 50.2959 20.9068C52.3362 20.9068 53.7148 22.0831 53.7331 23.8477H51.601C51.5826 23.0757 51.0679 22.5794 50.204 22.5794C49.3218 22.5794 48.8071 22.9838 48.8071 23.6639C48.8071 24.1785 49.2115 24.5094 49.9835 24.6932L51.6193 25.0792C53.145 25.4284 53.9169 26.1269 53.9169 27.5238C53.9169 29.3619 52.3546 30.5015 50.1121 30.5015C47.8513 30.5015 46.4176 29.2884 46.4176 27.5055ZM58.7123 30.2626H56.4699V23.0573H54.7237V21.1825H56.4699V18.3519H58.7123V21.1825H60.4769V23.0573H58.7123V30.2626ZM64.519 30.5015C62.5891 30.5015 61.4127 29.3803 61.4127 27.6709C61.4127 25.9982 62.6258 24.9505 64.7764 24.7851L67.4967 24.5829V24.3807C67.4967 23.1492 66.7615 22.6529 65.6219 22.6529C64.2985 22.6529 63.5632 23.2044 63.5632 24.1602H61.6516C61.6516 22.1934 63.2691 20.9068 65.7322 20.9068C68.1768 20.9068 69.684 22.2302 69.684 24.7484V30.2626H67.7173L67.5519 28.9208C67.1659 29.8582 65.9344 30.5015 64.519 30.5015ZM65.2543 28.8105C66.6328 28.8105 67.5151 27.9834 67.5151 26.5864V26.1085L65.6219 26.2556C64.2249 26.3842 63.6919 26.8438 63.6919 27.579C63.6919 28.4061 64.2433 28.8105 65.2543 28.8105Z" fill="black"/>
<path d="M20.6797 7.96497H22.0838V9.36905H20.6797V7.96497Z" fill="#2495FF"/>
<path d="M20.6797 9.93068H22.0838V11.3348H20.6797V9.93068Z" fill="#2495FF"/>
<path d="M22.6454 7.96497H24.0495V9.36905H22.6454V7.96497Z" fill="#2495FF"/>
<path d="M22.6454 9.93068H24.0495V11.3348H22.6454V9.93068Z" fill="#2495FF"/>
<path d="M25.0402 3.81577L13.0161 10.3923L24.0446 2.97331L25.0402 3.81577Z" fill="#2495FF"/>
</svg>
