<svg width="82" height="56" viewBox="0 0 82 56" fill="none" xmlns="http://www.w3.org/2000/svg">
<g clip-path="url(#clip0_9_40248)">
<path d="M44.7054 12.7609C43.7415 12.8986 43.0071 13.2199 42.6399 13.7248C42.3644 14.092 42.2726 14.1379 41.9972 14.092C41.6759 14.0002 41.6759 14.0002 41.6759 13.174C41.6759 11.1084 40.6661 9.36416 38.9677 8.35433C36.3054 6.83957 33.0464 7.6658 31.394 10.374C30.9349 11.0625 30.5677 12.8068 30.6595 13.633C30.7972 14.5511 31.1185 15.4691 31.5776 16.1576L31.9907 16.7543L31.2563 17.397C30.5218 18.0396 30.3382 18.1314 30.6595 17.6724C30.8431 17.3511 30.9349 16.8002 30.889 16.5248C30.7513 16.1117 29.3284 16.1117 28.3185 16.5248C27.7983 16.7696 27.8289 16.6778 28.4103 16.2494C29.1448 15.6986 29.7874 14.9183 29.8792 14.3674C30.0628 13.4035 29.4202 12.9445 27.0792 12.256L25.6562 11.8429L26.8038 11.797C29.2366 11.7051 30.3382 11.2461 30.3382 10.374C30.3382 9.96089 29.8333 9.22646 29.2366 8.67564C28.9 8.36963 28.8082 8.24723 28.9612 8.30843C29.6038 8.58384 30.3841 8.76744 30.889 8.76744C31.9601 8.73684 32.5262 7.98712 32.5874 6.51826C32.6333 5.78384 32.4497 3.99367 32.2202 2.98384C32.1284 2.66253 32.1284 2.38712 32.1284 2.38712C32.1743 2.34121 32.312 2.61662 32.4956 2.98384C33.5972 5.27892 34.7448 6.33466 35.8923 6.10515C36.8104 5.96744 38.0497 4.7281 39.0136 2.93794C39.8858 1.33138 39.8858 1.33138 39.6103 2.66253C39.1054 5.37072 39.2431 7.11498 40.0235 7.75761C40.3907 8.03302 41.2628 8.21662 41.8136 8.12482C42.3185 8.03302 43.4202 7.574 43.9251 7.29859C44.1087 7.16089 44.3841 7.02318 44.5218 6.93138L44.7972 6.79367L44.5218 7.02318C42.7317 8.95105 42.089 10.1445 42.4103 11.0166C42.594 11.6592 43.1907 12.0265 44.5218 12.3937L45.3481 12.6691L44.7054 12.7609Z" fill="#FCAA18"/>
<path d="M10.6021 31.2137C10.6021 30.9842 19.9202 28.8727 22.7661 28.5973L23.7759 28.5055V27.5415C23.7759 26.4399 23.73 26.4858 25.7956 26.3022L27.0349 26.2104L27.0808 27.1743L27.1726 28.0924L30.4775 28.1383L33.7825 28.1842V25.5219V22.8596L34.7923 22.7219C35.3431 22.676 36.1694 22.6301 36.6743 22.6301H37.5464L37.5923 25.3842L37.6382 28.0924H38.9235H40.2546L40.3464 25.8891L40.3923 23.6858H41.1267H41.9071L41.953 25.935L41.9989 28.1842H44.5694H47.1857V24.9252C47.1857 21.9415 47.2316 21.6661 47.4612 21.6661C47.6448 21.6661 48.6087 21.8038 49.6185 21.9874L51.4546 22.3547V25.2924V28.1842H53.1071H54.7595V27.4038C54.7595 26.7153 54.3923 25.7973 52.4185 21.4366C51.1792 18.6366 50.0775 16.2956 50.0316 16.2038C49.9398 16.1579 48.1956 17.5809 46.0841 19.3711L42.2743 22.6301H41.0349H39.7497L37.271 19.9219L34.7923 17.2596L34.471 17.6727C34.2874 17.9481 33.4612 19.2333 32.589 20.6104L31.0284 23.0891L30.9825 25.2924L30.9366 27.4497H30.248H29.6054L29.5595 26.2563C29.5136 25.2924 29.4677 25.1088 29.2382 25.1088C29.1005 25.1088 27.5857 25.2465 25.8874 25.4301C24.189 25.6596 22.7661 25.7514 22.7202 25.7055C22.6284 25.6137 27.8612 20.0137 28.0448 20.0137C28.0907 20.0137 28.5956 20.3809 29.1005 20.8399C29.6513 21.2989 30.1103 21.6661 30.1562 21.6661C30.2021 21.6661 31.1661 20.2432 32.2677 18.4989C33.3694 16.7547 34.3792 15.194 34.471 15.0563C34.7005 14.735 34.7923 14.7809 36.2153 15.5612C37.0415 16.0202 37.7759 16.4333 37.8677 16.4333C37.9595 16.4333 38.0513 15.8825 38.0513 15.1022V13.817H39.3366H40.6677V15.194C40.6677 15.9743 40.7136 16.5711 40.8054 16.5711C40.8972 16.5711 42.1366 16.1579 43.5595 15.653C49.4349 13.5874 50.8579 13.1284 50.9956 13.3579C51.9136 14.735 58.6612 26.8071 58.5694 26.8989C58.5234 26.9907 58.0185 27.0366 57.4218 27.0366H56.3661V27.6334V28.1842H57.1464C58.9366 28.2301 70.5497 30.8924 70.5497 31.1678C70.5497 31.3514 62.471 29.2858 60.9103 29.1481C59.8087 29.0563 58.2021 28.6891 57.33 28.5973L55.9071 28.5055V27.5415L55.953 26.6235L57.0087 26.5776C57.5595 26.5776 58.0185 26.5317 58.0185 26.4858C58.0185 26.394 50.812 13.7711 50.7202 13.6333C50.6743 13.6333 48.8382 14.2301 46.589 15.0104C44.3857 15.7907 42.1366 16.5711 41.5857 16.7547C40.2087 17.2596 40.1169 17.1678 40.2087 15.5612C40.2546 14.3678 40.2087 14.1842 39.9792 14.2301C39.7956 14.2301 39.3825 14.2301 39.0153 14.276H38.3726V15.653C38.3726 16.5252 38.2808 17.076 38.189 17.076C38.0972 17.076 37.3169 16.6629 36.4448 16.1579C35.6185 15.653 34.8841 15.2858 34.8382 15.2858C34.7923 15.2858 33.7825 16.8465 32.5431 18.7743C30.0185 22.7678 30.4316 22.4924 28.9169 21.2071L28.0907 20.5186L25.7497 22.9055C24.2808 24.3284 23.5005 25.2465 23.6841 25.2465C23.8218 25.2465 25.2448 25.1088 26.8513 24.9252C28.412 24.7415 29.789 24.6497 29.8808 24.6956C29.9267 24.7415 30.0185 25.2924 30.0185 25.935C30.0185 26.9448 30.0644 27.0366 30.3398 27.0366C30.6612 27.0366 30.6612 26.9448 30.6612 24.9711V22.8596L32.589 19.8301C33.6448 18.1776 34.6087 16.8006 34.7005 16.8006C34.7923 16.7547 36.0316 17.994 37.4546 19.5547L40.071 22.3547L40.8972 22.2629C41.3562 22.1711 41.8612 22.1252 41.9989 22.1252C42.1366 22.1252 44.0185 20.6563 46.1759 18.7743C48.3333 16.9383 50.1235 15.5153 50.1693 15.5612C50.2612 15.6071 50.9497 17.1678 51.7759 19.0497C52.6021 20.8858 53.7038 23.2727 54.1628 24.3743C54.9431 26.1186 55.0808 26.4858 55.0808 27.4497V28.5055H53.1071H51.1333L51.0874 25.6137L51.0415 22.7219L49.6644 22.4465C48.8841 22.2629 48.1038 22.1711 47.9202 22.1711L47.553 22.1252V25.3383V28.5055H44.5234H41.4939V26.3022V24.0989H41.0808H40.6677V26.3022V28.5055H38.9235H37.2251V25.8432V23.135H35.7562H34.2874L34.2415 25.7973L34.1956 28.4596L30.4775 28.5055L26.7595 28.5514V27.6334V26.7153H26.0251C25.612 26.7153 25.0612 26.7612 24.7857 26.8071C24.2808 26.9448 24.2808 26.9448 24.2808 27.7711C24.2808 28.2301 24.189 28.735 24.0972 28.8268C23.9595 28.9186 23.5464 29.0104 23.1333 29.0104C22.353 29.0104 15.5136 30.1579 14.7333 30.3415C14.412 30.4333 14.7333 30.2956 14.5956 30.3874C13.2644 30.6629 10.5562 31.4432 10.6021 31.2137Z" fill="#233469" stroke="#233469" stroke-width="0.367213"/>
<path d="M34.3818 28.5045L34.4736 23.3176L37.0441 23.2717V28.6881C37.0441 28.6881 34.3818 28.5963 34.3359 28.6422L34.3818 28.5045Z" fill="#1792CD"/>
<path d="M47.6875 28.6877H50.9924L50.9006 22.8582L47.6875 22.2156V28.6877Z" fill="#1792CD"/>
<path d="M24.3281 28.7803C24.6035 28.7803 26.6232 28.7344 26.6232 28.7344C26.5773 28.1835 26.5773 27.6786 26.5773 26.8524C25.8429 26.8983 25.0626 26.8983 24.4658 27.036C24.4658 27.6327 24.4658 28.0917 24.3281 28.7803Z" fill="#1792CD"/>
<path d="M10.0925 35.6642L10.2203 38.3726H9.89664C9.83419 37.8956 9.74902 37.5549 9.64114 37.3505C9.46512 37.0212 9.22949 36.7799 8.93423 36.6266C8.64466 36.4676 8.2614 36.3881 7.78445 36.3881H6.15772V45.2116C6.15772 45.9214 6.23438 46.3643 6.38768 46.5403C6.60344 46.7787 6.9356 46.898 7.38416 46.898H7.78445V47.2131H2.88723V46.898H3.29604C3.78435 46.898 4.1307 46.7504 4.33511 46.4551C4.46002 46.2734 4.52248 45.8589 4.52248 45.2116V36.3881H3.13422C2.59482 36.3881 2.21156 36.4279 1.98444 36.5074C1.68919 36.6152 1.43652 36.8225 1.22643 37.1291C1.01635 37.4357 0.891436 37.8502 0.851691 38.3726H0.528048L0.664319 35.6642H10.0925ZM12.8776 39.1817V40.9361C13.5305 39.7665 14.2005 39.1817 14.8876 39.1817C15.1998 39.1817 15.4582 39.2782 15.6626 39.4712C15.867 39.6586 15.9692 39.8772 15.9692 40.127C15.9692 40.3485 15.8954 40.5359 15.7478 40.6892C15.6001 40.8425 15.4241 40.9191 15.2197 40.9191C15.021 40.9191 14.7967 40.8226 14.5469 40.6295C14.3027 40.4308 14.121 40.3314 14.0018 40.3314C13.8996 40.3314 13.7889 40.3882 13.6696 40.5018C13.4141 40.7346 13.1501 41.1178 12.8776 41.6516V45.3905C12.8776 45.822 12.9315 46.1485 13.0394 46.3699C13.1132 46.5232 13.2438 46.651 13.4312 46.7532C13.6185 46.8554 13.8882 46.9065 14.2403 46.9065V47.2131H10.2458V46.9065C10.6433 46.9065 10.9385 46.844 11.1316 46.7191C11.2735 46.6283 11.3729 46.4835 11.4297 46.2848C11.4581 46.1882 11.4723 45.9129 11.4723 45.4586V42.4351C11.4723 41.5267 11.4524 40.9872 11.4127 40.8169C11.3786 40.6409 11.3105 40.5131 11.2082 40.4336C11.1117 40.3542 10.9896 40.3144 10.842 40.3144C10.666 40.3144 10.4673 40.357 10.2458 40.4422L10.1607 40.1356L12.5199 39.1817H12.8776ZM23.2426 39.4116V44.1385C23.2426 45.0413 23.2625 45.5949 23.3023 45.7993C23.3477 45.998 23.4158 46.1371 23.5067 46.2166C23.6032 46.2961 23.7139 46.3359 23.8388 46.3359C24.0148 46.3359 24.2136 46.2876 24.435 46.1911L24.5542 46.4892L22.2206 47.4516H21.8373V45.7993C21.1673 46.5261 20.6563 46.9831 20.3043 47.1705C19.9523 47.3579 19.5804 47.4516 19.1886 47.4516C18.7514 47.4516 18.371 47.3267 18.0473 47.0768C17.7294 46.8213 17.5079 46.4948 17.383 46.0974C17.2581 45.6999 17.1956 45.1378 17.1956 44.411V40.9276C17.1956 40.5586 17.1559 40.3031 17.0764 40.1611C16.9969 40.0192 16.8777 39.9113 16.7187 39.8375C16.5654 39.758 16.2843 39.7211 15.8755 39.7267V39.4116H18.6094V44.6325C18.6094 45.3593 18.7344 45.8362 18.9842 46.0633C19.2397 46.2904 19.5463 46.404 19.904 46.404C20.1482 46.404 20.4235 46.3273 20.7301 46.174C21.0424 46.0207 21.4115 45.7283 21.8373 45.2968V40.8765C21.8373 40.4336 21.755 40.1356 21.5904 39.9823C21.4314 39.8233 21.0964 39.7381 20.5854 39.7267V39.4116H23.2426ZM27.8077 35.1021V45.4501C27.8077 45.9384 27.8418 46.262 27.9099 46.421C27.9837 46.58 28.0944 46.7021 28.2421 46.7873C28.3897 46.8668 28.6651 46.9065 29.0682 46.9065V47.2131H25.2441V46.9065C25.6018 46.9065 25.846 46.8696 25.9766 46.7958C26.1072 46.722 26.2094 46.5999 26.2832 46.4295C26.357 46.2592 26.3939 45.9327 26.3939 45.4501V38.364C26.3939 37.484 26.374 36.9446 26.3343 36.7458C26.2945 36.5414 26.2292 36.4023 26.1384 36.3285C26.0532 36.2547 25.9425 36.2178 25.8062 36.2178C25.6586 36.2178 25.4712 36.2632 25.2441 36.354L25.0993 36.056L27.4244 35.1021H27.8077ZM29.5366 39.4116H33.1733V39.7267H32.9945C32.739 39.7267 32.5459 39.7835 32.4153 39.8971C32.2904 40.005 32.228 40.1412 32.228 40.3059C32.228 40.5273 32.3217 40.8339 32.509 41.2257L34.4083 45.1605L36.1543 40.851C36.2508 40.6182 36.2991 40.3882 36.2991 40.1611C36.2991 40.0589 36.2792 39.9823 36.2394 39.9311C36.194 39.8687 36.123 39.8204 36.0265 39.7864C35.93 39.7466 35.7596 39.7267 35.5155 39.7267V39.4116H38.0535V39.7267C37.8435 39.7495 37.6816 39.7949 37.5681 39.863C37.4545 39.9311 37.3296 40.0589 37.1933 40.2463C37.1422 40.3258 37.0457 40.5444 36.9038 40.9021L33.7269 48.6865C33.4203 49.4417 33.0172 50.0123 32.5175 50.3984C32.0236 50.7845 31.5466 50.9776 31.0867 50.9776C30.7517 50.9776 30.4763 50.8811 30.2606 50.688C30.0448 50.495 29.9369 50.2735 29.9369 50.0237C29.9369 49.7852 30.0136 49.5922 30.1669 49.4445C30.3259 49.3026 30.5416 49.2316 30.8142 49.2316C31.0015 49.2316 31.257 49.2941 31.5807 49.419C31.8078 49.5042 31.9498 49.5467 32.0065 49.5467C32.1769 49.5467 32.3614 49.4587 32.5601 49.2827C32.7645 49.1067 32.9689 48.766 33.1733 48.2607L33.7269 46.9065L30.9249 41.0213C30.8397 40.8453 30.7034 40.6267 30.5161 40.3655C30.3741 40.1668 30.2577 40.0334 30.1669 39.9652C30.0363 39.8744 29.8262 39.7949 29.5366 39.7267V39.4116ZM41.7414 41.0213H47.107V37.7168C47.107 37.1262 47.0701 36.7373 46.9963 36.5499C46.9395 36.408 46.8203 36.2859 46.6386 36.1837C46.3944 36.0474 46.1361 35.9793 45.8635 35.9793H45.4547V35.6642H50.3945V35.9793H49.9857C49.7132 35.9793 49.4548 36.0446 49.2107 36.1752C49.029 36.266 48.9041 36.4052 48.8359 36.5925C48.7735 36.7742 48.7423 37.149 48.7423 37.7168V45.169C48.7423 45.7539 48.7792 46.14 48.853 46.3273C48.9098 46.4693 49.0261 46.5914 49.2022 46.6936C49.452 46.8298 49.7132 46.898 49.9857 46.898H50.3945V47.2131H45.4547V46.898H45.8635C46.3348 46.898 46.6783 46.7589 46.8941 46.4807C47.036 46.299 47.107 45.8618 47.107 45.169V41.6516H41.7414V45.169C41.7414 45.7539 41.7783 46.14 41.8521 46.3273C41.9089 46.4693 42.0281 46.5914 42.2098 46.6936C42.4539 46.8298 42.7123 46.898 42.9848 46.898H43.4022V47.2131H38.4538V46.898H38.8626C39.3396 46.898 39.6859 46.7589 39.9017 46.4807C40.038 46.299 40.1061 45.8618 40.1061 45.169V37.7168C40.1061 37.1262 40.0692 36.7373 39.9954 36.5499C39.9386 36.408 39.8222 36.2859 39.6462 36.1837C39.3964 36.0474 39.1352 35.9793 38.8626 35.9793H38.4538V35.6642H43.4022V35.9793H42.9848C42.7123 35.9793 42.4539 36.0446 42.2098 36.1752C42.0338 36.266 41.9117 36.4052 41.8436 36.5925C41.7754 36.7742 41.7414 37.149 41.7414 37.7168V41.0213ZM55.1214 39.1817C56.3024 39.1817 57.2506 39.6302 57.9661 40.5273C58.5736 41.2939 58.8774 42.1739 58.8774 43.1676C58.8774 43.866 58.7099 44.5729 58.3749 45.2883C58.0399 46.0037 57.5771 46.5431 56.9866 46.9065C56.4018 47.2699 55.7488 47.4516 55.0277 47.4516C53.8524 47.4516 52.9184 46.9831 52.2257 46.0463C51.6408 45.2571 51.3484 44.3713 51.3484 43.389C51.3484 42.6736 51.5244 41.9639 51.8765 41.2598C52.2342 40.55 52.7026 40.0277 53.2818 39.6927C53.8609 39.352 54.4741 39.1817 55.1214 39.1817ZM54.8574 39.7353C54.5565 39.7353 54.2527 39.8261 53.9461 40.0078C53.6451 40.1838 53.401 40.4961 53.2136 40.9447C53.0263 41.3932 52.9326 41.9695 52.9326 42.6736C52.9326 43.8092 53.1568 44.7886 53.6054 45.6119C54.0596 46.4352 54.6558 46.8469 55.394 46.8469C55.9447 46.8469 56.3989 46.6198 56.7567 46.1655C57.1144 45.7113 57.2932 44.9306 57.2932 43.8234C57.2932 42.438 56.9951 41.3478 56.3989 40.5529C55.9958 40.0078 55.482 39.7353 54.8574 39.7353ZM62.3438 40.8425C62.9115 40.2747 63.2465 39.9482 63.3487 39.863C63.6043 39.6473 63.8796 39.4798 64.1749 39.3605C64.4701 39.2413 64.7626 39.1817 65.0521 39.1817C65.5404 39.1817 65.9606 39.3236 66.3126 39.6075C66.6647 39.8914 66.9003 40.3031 67.0195 40.8425C67.6044 40.1611 68.0983 39.7154 68.5015 39.5053C68.9046 39.2895 69.3191 39.1817 69.7449 39.1817C70.1594 39.1817 70.5257 39.2895 70.8436 39.5053C71.1673 39.7154 71.4228 40.0617 71.6101 40.5444C71.7351 40.8737 71.7975 41.3904 71.7975 42.0944V45.4501C71.7975 45.9384 71.8344 46.2734 71.9082 46.4551C71.965 46.58 72.0701 46.6879 72.2234 46.7787C72.3767 46.8639 72.6265 46.9065 72.9728 46.9065V47.2131H69.1232V46.9065H69.285C69.62 46.9065 69.8812 46.8412 70.0686 46.7106C70.1992 46.6198 70.2929 46.475 70.3496 46.2762C70.3724 46.1797 70.3837 45.9043 70.3837 45.4501V42.0944C70.3837 41.4585 70.3071 41.01 70.1538 40.7488C69.9323 40.3854 69.5774 40.2037 69.0891 40.2037C68.7882 40.2037 68.4844 40.2803 68.1778 40.4336C67.8769 40.5813 67.5107 40.8595 67.0792 41.2683L67.0621 41.362L67.0792 41.7282V45.4501C67.0792 45.9838 67.1075 46.316 67.1643 46.4466C67.2268 46.5772 67.3403 46.6879 67.505 46.7787C67.6697 46.8639 67.9507 46.9065 68.3482 46.9065V47.2131H64.4048V46.9065C64.8364 46.9065 65.1316 46.8554 65.2906 46.7532C65.4553 46.651 65.5688 46.4977 65.6313 46.2933C65.6597 46.1968 65.6739 45.9157 65.6739 45.4501V42.0944C65.6739 41.4585 65.5802 41.0014 65.3928 40.7232C65.143 40.3598 64.7938 40.1781 64.3452 40.1781C64.0386 40.1781 63.7348 40.2605 63.4339 40.4251C62.9626 40.675 62.5993 40.956 62.3438 41.2683V45.4501C62.3438 45.9611 62.3778 46.2933 62.446 46.4466C62.5198 46.5999 62.6248 46.7163 62.7611 46.7958C62.903 46.8696 63.1869 46.9065 63.6128 46.9065V47.2131H59.7546V46.9065C60.1123 46.9065 60.3622 46.8696 60.5041 46.7958C60.646 46.7163 60.7539 46.5942 60.8277 46.4295C60.9016 46.2592 60.9385 45.9327 60.9385 45.4501V42.4692C60.9385 41.6118 60.9129 41.0582 60.8618 40.8084C60.8221 40.621 60.7596 40.4933 60.6744 40.4251C60.5893 40.3513 60.4729 40.3144 60.3252 40.3144C60.1663 40.3144 59.9761 40.357 59.7546 40.4422L59.6269 40.1356L61.9775 39.1817H62.3438V40.8425ZM74.9147 42.35C74.909 43.5083 75.1901 44.4167 75.7579 45.0754C76.3257 45.734 76.9928 46.0633 77.7593 46.0633C78.2704 46.0633 78.7132 45.9242 79.088 45.646C79.4684 45.3621 79.7864 44.8795 80.0419 44.1981L80.3059 44.3685C80.1867 45.1463 79.8403 45.8561 79.2668 46.4977C78.6934 47.1336 77.9751 47.4516 77.1121 47.4516C76.1752 47.4516 75.3718 47.0882 74.7018 46.3614C74.0375 45.629 73.7053 44.6467 73.7053 43.4146C73.7053 42.0802 74.046 41.0412 74.7273 40.2974C75.4144 39.5479 76.2746 39.1731 77.3079 39.1731C78.1824 39.1731 78.9006 39.4627 79.4627 40.0419C80.0248 40.6153 80.3059 41.3847 80.3059 42.35H74.9147ZM74.9147 41.856H78.5259C78.4975 41.3563 78.4379 41.0043 78.347 40.7999C78.2051 40.4819 77.9921 40.2321 77.7082 40.0504C77.43 39.8687 77.1376 39.7778 76.831 39.7778C76.3597 39.7778 75.9367 39.9624 75.562 40.3314C75.1929 40.6948 74.9772 41.203 74.9147 41.856Z" fill="#233469"/>
<path d="M41.4032 52.5738L40.9455 51.0715H41.188L41.5127 52.2217H41.5284L41.8491 51.0715H42.0956L42.4125 52.2178H42.4281L42.7528 51.0715H42.9954L42.5377 52.5738H42.3108L41.9822 51.4197H41.9587L41.6301 52.5738H41.4032ZM43.5313 51.6701V52.5738H43.3005V50.5708H43.5313V51.3062H43.5509C43.5861 51.2287 43.6389 51.167 43.7093 51.1214C43.7804 51.0751 43.8749 51.052 43.993 51.052C44.0953 51.052 44.185 51.0725 44.2619 51.1136C44.3388 51.154 44.3985 51.2163 44.4409 51.3004C44.4839 51.3838 44.5054 51.4901 44.5054 51.6192V52.5738H44.2746V51.6349C44.2746 51.5155 44.2437 51.4233 44.1817 51.3581C44.1204 51.2922 44.0353 51.2593 43.9265 51.2593C43.8508 51.2593 43.783 51.2753 43.723 51.3072C43.6637 51.3392 43.6167 51.3858 43.5822 51.4471C43.5483 51.5084 43.5313 51.5827 43.5313 51.6701ZM45.5575 52.6051C45.4128 52.6051 45.2879 52.5731 45.183 52.5092C45.0786 52.4447 44.9981 52.3547 44.9414 52.2393C44.8853 52.1232 44.8573 51.9883 44.8573 51.8344C44.8573 51.6805 44.8853 51.5449 44.9414 51.4275C44.9981 51.3095 45.077 51.2176 45.1781 51.1517C45.2798 51.0852 45.3984 51.052 45.5341 51.052C45.6123 51.052 45.6896 51.065 45.7659 51.0911C45.8421 51.1172 45.9116 51.1595 45.9742 51.2182C46.0368 51.2763 46.0866 51.3532 46.1238 51.449C46.161 51.5449 46.1796 51.6629 46.1796 51.8031V51.9009H45.0216V51.7014H45.9448C45.9448 51.6166 45.9279 51.541 45.894 51.4745C45.8607 51.408 45.8131 51.3555 45.7512 51.317C45.6899 51.2785 45.6175 51.2593 45.5341 51.2593C45.4421 51.2593 45.3626 51.2821 45.2954 51.3278C45.2289 51.3728 45.1777 51.4314 45.1419 51.5038C45.106 51.5762 45.0881 51.6538 45.0881 51.7366V51.8696C45.0881 51.983 45.1077 52.0792 45.1468 52.1581C45.1865 52.2363 45.2416 52.296 45.3121 52.3371C45.3825 52.3775 45.4643 52.3977 45.5575 52.3977C45.6182 52.3977 45.6729 52.3892 45.7218 52.3723C45.7714 52.3547 45.8141 52.3286 45.85 52.294C45.8858 52.2588 45.9135 52.2152 45.9331 52.163L46.1561 52.2256C46.1326 52.3012 46.0932 52.3677 46.0377 52.4251C45.9823 52.4818 45.9139 52.5262 45.8324 52.5581C45.7509 52.5894 45.6593 52.6051 45.5575 52.6051ZM46.5307 52.5738V51.0715H46.7537V51.2984H46.7693C46.7967 51.2241 46.8462 51.1638 46.918 51.1175C46.9897 51.0712 47.0705 51.0481 47.1605 51.0481C47.1775 51.0481 47.1987 51.0484 47.2241 51.049C47.2495 51.0497 47.2687 51.0507 47.2818 51.052V51.2867C47.274 51.2847 47.256 51.2818 47.228 51.2779C47.2006 51.2733 47.1716 51.271 47.141 51.271C47.0679 51.271 47.0027 51.2864 46.9453 51.317C46.8886 51.347 46.8436 51.3887 46.8104 51.4422C46.7778 51.495 46.7615 51.5553 46.7615 51.6231V52.5738H46.5307ZM48.1395 52.6051C47.9948 52.6051 47.8699 52.5731 47.7649 52.5092C47.6606 52.4447 47.5801 52.3547 47.5234 52.2393C47.4673 52.1232 47.4392 51.9883 47.4392 51.8344C47.4392 51.6805 47.4673 51.5449 47.5234 51.4275C47.5801 51.3095 47.659 51.2176 47.76 51.1517C47.8618 51.0852 47.9804 51.052 48.116 51.052C48.1943 51.052 48.2715 51.065 48.3478 51.0911C48.4241 51.1172 48.4935 51.1595 48.5561 51.2182C48.6187 51.2763 48.6686 51.3532 48.7058 51.449C48.7429 51.5449 48.7615 51.6629 48.7615 51.8031V51.9009H47.6036V51.7014H48.5268C48.5268 51.6166 48.5099 51.541 48.4759 51.4745C48.4427 51.408 48.3951 51.3555 48.3332 51.317C48.2719 51.2785 48.1995 51.2593 48.116 51.2593C48.0241 51.2593 47.9446 51.2821 47.8774 51.3278C47.8109 51.3728 47.7597 51.4314 47.7238 51.5038C47.688 51.5762 47.6701 51.6538 47.6701 51.7366V51.8696C47.6701 51.983 47.6896 52.0792 47.7287 52.1581C47.7685 52.2363 47.8236 52.296 47.894 52.3371C47.9644 52.3775 48.0463 52.3977 48.1395 52.3977C48.2001 52.3977 48.2549 52.3892 48.3038 52.3723C48.3534 52.3547 48.3961 52.3286 48.4319 52.294C48.4678 52.2588 48.4955 52.2152 48.5151 52.163L48.7381 52.2256C48.7146 52.3012 48.6751 52.3677 48.6197 52.4251C48.5643 52.4818 48.4958 52.5262 48.4143 52.5581C48.3328 52.5894 48.2412 52.6051 48.1395 52.6051ZM50.118 51.6701V52.5738H49.8872V50.5708H50.118V51.3062H50.1376C50.1728 51.2287 50.2256 51.167 50.296 51.1214C50.3671 51.0751 50.4616 51.052 50.5797 51.052C50.682 51.052 50.7717 51.0725 50.8486 51.1136C50.9256 51.154 50.9852 51.2163 51.0276 51.3004C51.0706 51.3838 51.0921 51.4901 51.0921 51.6192V52.5738H50.8613V51.6349C50.8613 51.5155 50.8304 51.4233 50.7684 51.3581C50.7071 51.2922 50.622 51.2593 50.5132 51.2593C50.4375 51.2593 50.3697 51.2753 50.3097 51.3072C50.2504 51.3392 50.2035 51.3858 50.1689 51.4471C50.135 51.5084 50.118 51.5827 50.118 51.6701ZM52.1247 52.6051C51.9891 52.6051 51.8701 52.5728 51.7677 52.5082C51.666 52.4437 51.5865 52.3534 51.5291 52.2373C51.4723 52.1213 51.444 51.9856 51.444 51.8305C51.444 51.674 51.4723 51.5374 51.5291 51.4207C51.5865 51.304 51.666 51.2133 51.7677 51.1488C51.8701 51.0842 51.9891 51.052 52.1247 51.052C52.2603 51.052 52.379 51.0842 52.4807 51.1488C52.5831 51.2133 52.6626 51.304 52.7193 51.4207C52.7767 51.5374 52.8054 51.674 52.8054 51.8305C52.8054 51.9856 52.7767 52.1213 52.7193 52.2373C52.6626 52.3534 52.5831 52.4437 52.4807 52.5082C52.379 52.5728 52.2603 52.6051 52.1247 52.6051ZM52.1247 52.3977C52.2277 52.3977 52.3125 52.3713 52.379 52.3185C52.4455 52.2657 52.4947 52.1962 52.5267 52.1102C52.5586 52.0241 52.5746 51.9309 52.5746 51.8305C52.5746 51.7301 52.5586 51.6365 52.5267 51.5498C52.4947 51.4631 52.4455 51.393 52.379 51.3395C52.3125 51.286 52.2277 51.2593 52.1247 51.2593C52.0217 51.2593 51.9369 51.286 51.8704 51.3395C51.8039 51.393 51.7547 51.4631 51.7227 51.5498C51.6908 51.6365 51.6748 51.7301 51.6748 51.8305C51.6748 51.9309 51.6908 52.0241 51.7227 52.1102C51.7547 52.1962 51.8039 52.2657 51.8704 52.3185C51.9369 52.3713 52.0217 52.3977 52.1247 52.3977ZM54.1044 51.9596V51.0715H54.3353V52.5738H54.1044V52.3195H54.0888C54.0536 52.3958 53.9988 52.4606 53.9245 52.5141C53.8502 52.5669 53.7563 52.5933 53.6428 52.5933C53.5489 52.5933 53.4655 52.5728 53.3924 52.5317C53.3194 52.49 53.262 52.4274 53.2203 52.3439C53.1786 52.2598 53.1577 52.1539 53.1577 52.0261V51.0715H53.3885V52.0104C53.3885 52.12 53.4192 52.2073 53.4805 52.2725C53.5424 52.3377 53.6213 52.3703 53.7171 52.3703C53.7745 52.3703 53.8329 52.3557 53.8922 52.3263C53.9522 52.297 54.0024 52.252 54.0428 52.1914C54.0839 52.1307 54.1044 52.0535 54.1044 51.9596ZM55.8221 51.408L55.6147 51.4666C55.6017 51.4321 55.5825 51.3985 55.557 51.3659C55.5323 51.3327 55.4984 51.3053 55.4553 51.2838C55.4123 51.2622 55.3572 51.2515 55.29 51.2515C55.1981 51.2515 55.1215 51.2727 55.0602 51.3151C54.9996 51.3568 54.9693 51.4099 54.9693 51.4745C54.9693 51.5318 54.9901 51.5772 55.0318 51.6104C55.0736 51.6437 55.1388 51.6714 55.2274 51.6935L55.4504 51.7483C55.5848 51.7809 55.6848 51.8308 55.7507 51.898C55.8165 51.9645 55.8495 52.0502 55.8495 52.1552C55.8495 52.2412 55.8247 52.3182 55.7751 52.386C55.7262 52.4538 55.6578 52.5073 55.5698 52.5464C55.4817 52.5855 55.3794 52.6051 55.2627 52.6051C55.1094 52.6051 54.9826 52.5718 54.8822 52.5053C54.7818 52.4388 54.7182 52.3416 54.6915 52.2139L54.9106 52.1591C54.9314 52.2399 54.9709 52.3006 55.0289 52.341C55.0876 52.3814 55.1642 52.4016 55.2587 52.4016C55.3663 52.4016 55.4517 52.3788 55.515 52.3332C55.5789 52.2869 55.6108 52.2315 55.6108 52.1669C55.6108 52.1147 55.5926 52.0711 55.5561 52.0359C55.5195 52 55.4635 51.9733 55.3878 51.9557L55.1375 51.897C54.9999 51.8644 54.8988 51.8138 54.8343 51.7454C54.7704 51.6763 54.7384 51.5899 54.7384 51.4862C54.7384 51.4014 54.7622 51.3265 54.8098 51.2613C54.8581 51.1961 54.9236 51.1449 55.0064 51.1077C55.0899 51.0705 55.1844 51.052 55.29 51.052C55.4387 51.052 55.5554 51.0846 55.6402 51.1498C55.7256 51.215 55.7862 51.301 55.8221 51.408ZM56.8268 52.6051C56.682 52.6051 56.5571 52.5731 56.4522 52.5092C56.3478 52.4447 56.2673 52.3547 56.2106 52.2393C56.1545 52.1232 56.1265 51.9883 56.1265 51.8344C56.1265 51.6805 56.1545 51.5449 56.2106 51.4275C56.2673 51.3095 56.3462 51.2176 56.4473 51.1517C56.549 51.0852 56.6677 51.052 56.8033 51.052C56.8815 51.052 56.9588 51.065 57.0351 51.0911C57.1114 51.1172 57.1808 51.1595 57.2434 51.2182C57.306 51.2763 57.3559 51.3532 57.393 51.449C57.4302 51.5449 57.4488 51.6629 57.4488 51.8031V51.9009H56.2908V51.7014H57.214C57.214 51.6166 57.1971 51.541 57.1632 51.4745C57.1299 51.408 57.0823 51.3555 57.0204 51.317C56.9591 51.2785 56.8867 51.2593 56.8033 51.2593C56.7113 51.2593 56.6318 51.2821 56.5646 51.3278C56.4981 51.3728 56.447 51.4314 56.4111 51.5038C56.3752 51.5762 56.3573 51.6538 56.3573 51.7366V51.8696C56.3573 51.983 56.3769 52.0792 56.416 52.1581C56.4558 52.2363 56.5109 52.296 56.5813 52.3371C56.6517 52.3775 56.7335 52.3977 56.8268 52.3977C56.8874 52.3977 56.9422 52.3892 56.9911 52.3723C57.0406 52.3547 57.0833 52.3286 57.1192 52.294C57.155 52.2588 57.1827 52.2152 57.2023 52.163L57.4253 52.2256C57.4018 52.3012 57.3624 52.3677 57.307 52.4251C57.2515 52.4818 57.1831 52.5262 57.1016 52.5581C57.0201 52.5894 56.9285 52.6051 56.8268 52.6051ZM58.864 51.408L58.6566 51.4666C58.6436 51.4321 58.6243 51.3985 58.5989 51.3659C58.5741 51.3327 58.5402 51.3053 58.4972 51.2838C58.4542 51.2622 58.3991 51.2515 58.3319 51.2515C58.24 51.2515 58.1634 51.2727 58.1021 51.3151C58.0414 51.3568 58.0111 51.4099 58.0111 51.4745C58.0111 51.5318 58.032 51.5772 58.0737 51.6104C58.1155 51.6437 58.1807 51.6714 58.2693 51.6935L58.4923 51.7483C58.6266 51.7809 58.7267 51.8308 58.7926 51.898C58.8584 51.9645 58.8913 52.0502 58.8913 52.1552C58.8913 52.2412 58.8666 52.3182 58.817 52.386C58.7681 52.4538 58.6997 52.5073 58.6116 52.5464C58.5236 52.5855 58.4212 52.6051 58.3045 52.6051C58.1513 52.6051 58.0245 52.5718 57.9241 52.5053C57.8237 52.4388 57.7601 52.3416 57.7334 52.2139L57.9524 52.1591C57.9733 52.2399 58.0128 52.3006 58.0708 52.341C58.1295 52.3814 58.2061 52.4016 58.3006 52.4016C58.4082 52.4016 58.4936 52.3788 58.5569 52.3332C58.6208 52.2869 58.6527 52.2315 58.6527 52.1669C58.6527 52.1147 58.6345 52.0711 58.5979 52.0359C58.5614 52 58.5054 51.9733 58.4297 51.9557L58.1793 51.897C58.0418 51.8644 57.9407 51.8138 57.8762 51.7454C57.8123 51.6763 57.7803 51.5899 57.7803 51.4862C57.7803 51.4014 57.8041 51.3265 57.8517 51.2613C57.9 51.1961 57.9655 51.1449 58.0483 51.1077C58.1318 51.0705 58.2263 51.052 58.3319 51.052C58.4806 51.052 58.5973 51.0846 58.6821 51.1498C58.7675 51.215 58.8281 51.301 58.864 51.408ZM60.0447 52.5738V50.5708H60.2755V51.3102H60.295C60.312 51.2841 60.3355 51.2508 60.3655 51.2104C60.3961 51.1693 60.4398 51.1328 60.4965 51.1009C60.5539 51.0683 60.6315 51.052 60.7293 51.052C60.8558 51.052 60.9673 51.0836 61.0638 51.1468C61.1603 51.2101 61.2356 51.2997 61.2897 51.4158C61.3438 51.5318 61.3709 51.6688 61.3709 51.8266C61.3709 51.9856 61.3438 52.1235 61.2897 52.2403C61.2356 52.3563 61.1606 52.4463 61.0647 52.5102C60.9689 52.5734 60.8584 52.6051 60.7332 52.6051C60.6367 52.6051 60.5594 52.5891 60.5014 52.5571C60.4434 52.5245 60.3987 52.4877 60.3674 52.4466C60.3361 52.4049 60.312 52.3703 60.295 52.3429H60.2677V52.5738H60.0447ZM60.2716 51.8226C60.2716 51.9361 60.2882 52.0362 60.3215 52.1229C60.3547 52.209 60.4033 52.2764 60.4672 52.3253C60.5311 52.3736 60.6093 52.3977 60.7019 52.3977C60.7984 52.3977 60.8789 52.3723 60.9435 52.3214C61.0087 52.2699 61.0576 52.2008 61.0902 52.1141C61.1234 52.0267 61.1401 51.9296 61.1401 51.8226C61.1401 51.717 61.1238 51.6218 61.0912 51.5371C61.0592 51.4516 61.0106 51.3842 60.9454 51.3346C60.8809 51.2844 60.7997 51.2593 60.7019 51.2593C60.608 51.2593 60.5291 51.2831 60.4652 51.3307C60.4013 51.3776 60.3531 51.4435 60.3205 51.5283C60.2879 51.6124 60.2716 51.7105 60.2716 51.8226ZM62.3538 52.6051C62.209 52.6051 62.0842 52.5731 61.9792 52.5092C61.8749 52.4447 61.7943 52.3547 61.7376 52.2393C61.6816 52.1232 61.6535 51.9883 61.6535 51.8344C61.6535 51.6805 61.6816 51.5449 61.7376 51.4275C61.7943 51.3095 61.8732 51.2176 61.9743 51.1517C62.076 51.0852 62.1947 51.052 62.3303 51.052C62.4085 51.052 62.4858 51.065 62.5621 51.0911C62.6384 51.1172 62.7078 51.1595 62.7704 51.2182C62.833 51.2763 62.8829 51.3532 62.92 51.449C62.9572 51.5449 62.9758 51.6629 62.9758 51.8031V51.9009H61.8178V51.7014H62.7411C62.7411 51.6166 62.7241 51.541 62.6902 51.4745C62.657 51.408 62.6094 51.3555 62.5474 51.317C62.4861 51.2785 62.4138 51.2593 62.3303 51.2593C62.2384 51.2593 62.1588 51.2821 62.0917 51.3278C62.0252 51.3728 61.974 51.4314 61.9381 51.5038C61.9023 51.5762 61.8843 51.6538 61.8843 51.7366V51.8696C61.8843 51.983 61.9039 52.0792 61.943 52.1581C61.9828 52.2363 62.0379 52.296 62.1083 52.3371C62.1787 52.3775 62.2605 52.3977 62.3538 52.3977C62.4144 52.3977 62.4692 52.3892 62.5181 52.3723C62.5676 52.3547 62.6103 52.3286 62.6462 52.294C62.6821 52.2588 62.7098 52.2152 62.7293 52.163L62.9523 52.2256C62.9289 52.3012 62.8894 52.3677 62.834 52.4251C62.7786 52.4818 62.7101 52.5262 62.6286 52.5581C62.5471 52.5894 62.4555 52.6051 62.3538 52.6051ZM63.9372 52.6051C63.7964 52.6051 63.6751 52.5718 63.5734 52.5053C63.4716 52.4388 63.3934 52.3472 63.3386 52.2305C63.2839 52.1138 63.2565 51.9804 63.2565 51.8305C63.2565 51.6779 63.2845 51.5433 63.3406 51.4265C63.3973 51.3092 63.4762 51.2176 63.5773 51.1517C63.679 51.0852 63.7977 51.052 63.9333 51.052C64.0389 51.052 64.1341 51.0715 64.2189 51.1106C64.3036 51.1498 64.3731 51.2045 64.4272 51.275C64.4813 51.3454 64.5149 51.4275 64.5279 51.5214H64.2971C64.2795 51.453 64.2404 51.3923 64.1797 51.3395C64.1197 51.286 64.0389 51.2593 63.9372 51.2593C63.8472 51.2593 63.7683 51.2828 63.7005 51.3297C63.6333 51.376 63.5809 51.4415 63.543 51.5263C63.5059 51.6104 63.4873 51.7092 63.4873 51.8226C63.4873 51.9387 63.5056 52.0398 63.5421 52.1258C63.5792 52.2119 63.6314 52.2787 63.6985 52.3263C63.7664 52.3739 63.8459 52.3977 63.9372 52.3977C63.9972 52.3977 64.0516 52.3873 64.1005 52.3664C64.1494 52.3456 64.1908 52.3156 64.2247 52.2764C64.2586 52.2373 64.2828 52.1904 64.2971 52.1356H64.5279C64.5149 52.2243 64.4826 52.3042 64.4311 52.3752C64.3802 52.4456 64.3127 52.5017 64.2286 52.5434C64.1452 52.5845 64.048 52.6051 63.9372 52.6051ZM65.4756 52.6051C65.34 52.6051 65.221 52.5728 65.1186 52.5082C65.0169 52.4437 64.9374 52.3534 64.88 52.2373C64.8233 52.1213 64.7949 51.9856 64.7949 51.8305C64.7949 51.674 64.8233 51.5374 64.88 51.4207C64.9374 51.304 65.0169 51.2133 65.1186 51.1488C65.221 51.0842 65.34 51.052 65.4756 51.052C65.6112 51.052 65.7299 51.0842 65.8316 51.1488C65.934 51.2133 66.0135 51.304 66.0702 51.4207C66.1276 51.5374 66.1563 51.674 66.1563 51.8305C66.1563 51.9856 66.1276 52.1213 66.0702 52.2373C66.0135 52.3534 65.934 52.4437 65.8316 52.5082C65.7299 52.5728 65.6112 52.6051 65.4756 52.6051ZM65.4756 52.3977C65.5786 52.3977 65.6634 52.3713 65.7299 52.3185C65.7964 52.2657 65.8456 52.1962 65.8776 52.1102C65.9095 52.0241 65.9255 51.9309 65.9255 51.8305C65.9255 51.7301 65.9095 51.6365 65.8776 51.5498C65.8456 51.4631 65.7964 51.393 65.7299 51.3395C65.6634 51.286 65.5786 51.2593 65.4756 51.2593C65.3726 51.2593 65.2878 51.286 65.2213 51.3395C65.1548 51.393 65.1056 51.4631 65.0736 51.5498C65.0417 51.6365 65.0257 51.7301 65.0257 51.8305C65.0257 51.9309 65.0417 52.0241 65.0736 52.1102C65.1056 52.1962 65.1548 52.2657 65.2213 52.3185C65.2878 52.3713 65.3726 52.3977 65.4756 52.3977ZM66.5086 52.5738V51.0715H66.7316V51.3062H66.7512C66.7825 51.2261 66.833 51.1638 66.9028 51.1194C66.9725 51.0745 67.0563 51.052 67.1541 51.052C67.2532 51.052 67.3357 51.0745 67.4016 51.1194C67.4681 51.1638 67.5199 51.2261 67.5571 51.3062H67.5727C67.6112 51.2287 67.6689 51.167 67.7458 51.1214C67.8228 51.0751 67.915 51.052 68.0226 51.052C68.1569 51.052 68.2668 51.094 68.3522 51.1781C68.4376 51.2616 68.4803 51.3917 68.4803 51.5684V52.5738H68.2495V51.5684C68.2495 51.4575 68.2192 51.3783 68.1586 51.3307C68.0979 51.2831 68.0265 51.2593 67.9444 51.2593C67.8387 51.2593 67.7569 51.2913 67.6989 51.3552C67.6409 51.4184 67.6118 51.4986 67.6118 51.5957V52.5738H67.3771V51.5449C67.3771 51.4595 67.3494 51.3907 67.294 51.3385C67.2386 51.2857 67.1672 51.2593 67.0798 51.2593C67.0198 51.2593 66.9637 51.2753 66.9116 51.3072C66.8601 51.3392 66.8183 51.3835 66.7864 51.4402C66.7551 51.4963 66.7395 51.5612 66.7395 51.6349V52.5738H66.5086ZM69.5322 52.6051C69.3874 52.6051 69.2626 52.5731 69.1576 52.5092C69.0533 52.4447 68.9728 52.3547 68.916 52.2393C68.86 52.1232 68.8319 51.9883 68.8319 51.8344C68.8319 51.6805 68.86 51.5449 68.916 51.4275C68.9728 51.3095 69.0516 51.2176 69.1527 51.1517C69.2544 51.0852 69.3731 51.052 69.5087 51.052C69.587 51.052 69.6642 51.065 69.7405 51.0911C69.8168 51.1172 69.8862 51.1595 69.9488 51.2182C70.0114 51.2763 70.0613 51.3532 70.0985 51.449C70.1356 51.5449 70.1542 51.6629 70.1542 51.8031V51.9009H68.9962V51.7014H69.9195C69.9195 51.6166 69.9025 51.541 69.8686 51.4745C69.8354 51.408 69.7878 51.3555 69.7258 51.317C69.6645 51.2785 69.5922 51.2593 69.5087 51.2593C69.4168 51.2593 69.3372 51.2821 69.2701 51.3278C69.2036 51.3728 69.1524 51.4314 69.1165 51.5038C69.0807 51.5762 69.0627 51.6538 69.0627 51.7366V51.8696C69.0627 51.983 69.0823 52.0792 69.1214 52.1581C69.1612 52.2363 69.2163 52.296 69.2867 52.3371C69.3571 52.3775 69.4389 52.3977 69.5322 52.3977C69.5928 52.3977 69.6476 52.3892 69.6965 52.3723C69.746 52.3547 69.7887 52.3286 69.8246 52.294C69.8605 52.2588 69.8882 52.2152 69.9077 52.163L70.1307 52.2256C70.1073 52.3012 70.0678 52.3677 70.0124 52.4251C69.957 52.4818 69.8885 52.5262 69.807 52.5581C69.7255 52.5894 69.6339 52.6051 69.5322 52.6051ZM71.3112 52.5738V50.5708H71.5537V51.4627H72.6217V50.5708H72.8643V52.5738H72.6217V51.6779H71.5537V52.5738H71.3112ZM75.0399 51.5723C75.0399 51.7835 75.0017 51.9661 74.9255 52.12C74.8492 52.2738 74.7445 52.3925 74.6115 52.476C74.4785 52.5594 74.3266 52.6011 74.1558 52.6011C73.9849 52.6011 73.833 52.5594 73.7 52.476C73.567 52.3925 73.4623 52.2738 73.3861 52.12C73.3098 51.9661 73.2716 51.7835 73.2716 51.5723C73.2716 51.361 73.3098 51.1785 73.3861 51.0246C73.4623 50.8707 73.567 50.752 73.7 50.6686C73.833 50.5851 73.9849 50.5434 74.1558 50.5434C74.3266 50.5434 74.4785 50.5851 74.6115 50.6686C74.7445 50.752 74.8492 50.8707 74.9255 51.0246C75.0017 51.1785 75.0399 51.361 75.0399 51.5723ZM74.8052 51.5723C74.8052 51.3988 74.7762 51.2525 74.7181 51.1331C74.6607 51.0138 74.5828 50.9235 74.4844 50.8622C74.3866 50.8009 74.277 50.7703 74.1558 50.7703C74.0345 50.7703 73.9246 50.8009 73.8262 50.8622C73.7284 50.9235 73.6505 51.0138 73.5924 51.1331C73.535 51.2525 73.5064 51.3988 73.5064 51.5723C73.5064 51.7457 73.535 51.8921 73.5924 52.0114C73.6505 52.1307 73.7284 52.221 73.8262 52.2823C73.9246 52.3436 74.0345 52.3742 74.1558 52.3742C74.277 52.3742 74.3866 52.3436 74.4844 52.2823C74.5828 52.221 74.6607 52.1307 74.7181 52.0114C74.7762 51.8921 74.8052 51.7457 74.8052 51.5723ZM75.4477 50.5708H75.7372L76.4179 52.2334H76.4414L77.1221 50.5708H77.4116V52.5738H77.1847V51.052H77.1651L76.5392 52.5738H76.3201L75.6942 51.052H75.6746V52.5738H75.4477V50.5708ZM77.8979 52.5738V50.5708H79.1067V50.7859H78.1405V51.4627H79.0441V51.6779H78.1405V52.3586H79.1224V52.5738H77.8979ZM80.6393 51.0715C80.6275 50.9724 80.58 50.8955 80.4965 50.8407C80.413 50.7859 80.3107 50.7586 80.1894 50.7586C80.1007 50.7586 80.0231 50.7729 79.9566 50.8016C79.8908 50.8303 79.8393 50.8697 79.8021 50.9199C79.7656 50.9701 79.7473 51.0272 79.7473 51.0911C79.7473 51.1446 79.76 51.1905 79.7855 51.229C79.8116 51.2668 79.8448 51.2984 79.8852 51.3239C79.9257 51.3486 79.968 51.3692 80.0124 51.3855C80.0567 51.4011 80.0975 51.4138 80.1346 51.4236L80.3381 51.4784C80.3902 51.4921 80.4482 51.511 80.5121 51.5351C80.5767 51.5592 80.6383 51.5922 80.697 51.6339C80.7563 51.675 80.8052 51.7278 80.8437 51.7923C80.8822 51.8569 80.9014 51.9361 80.9014 52.03C80.9014 52.1382 80.873 52.236 80.8163 52.3234C80.7602 52.4108 80.6781 52.4802 80.5698 52.5317C80.4623 52.5832 80.3315 52.609 80.1777 52.609C80.0342 52.609 79.91 52.5858 79.805 52.5395C79.7007 52.4932 79.6186 52.4287 79.5586 52.3459C79.4992 52.2631 79.4657 52.1669 79.4578 52.0574H79.7082C79.7147 52.133 79.7402 52.1956 79.7845 52.2451C79.8295 52.294 79.8862 52.3306 79.9547 52.3547C80.0238 52.3782 80.0981 52.3899 80.1777 52.3899C80.2702 52.3899 80.3534 52.3749 80.4271 52.3449C80.5007 52.3143 80.5591 52.2719 80.6021 52.2178C80.6452 52.163 80.6667 52.0991 80.6667 52.0261C80.6667 51.9596 80.6481 51.9054 80.6109 51.8637C80.5738 51.822 80.5249 51.7881 80.4642 51.762C80.4036 51.7359 80.3381 51.7131 80.2676 51.6935L80.0212 51.6231C79.8647 51.5781 79.7408 51.5139 79.6495 51.4305C79.5582 51.347 79.5126 51.2378 79.5126 51.1028C79.5126 50.9907 79.5429 50.8929 79.6036 50.8094C79.6649 50.7253 79.747 50.6601 79.85 50.6138C79.9537 50.5669 80.0694 50.5434 80.1972 50.5434C80.3263 50.5434 80.4411 50.5665 80.5415 50.6128C80.6419 50.6585 80.7214 50.7211 80.7801 50.8006C80.8395 50.8802 80.8708 50.9705 80.874 51.0715H80.6393Z" fill="#199BE4"/>
</g>
<defs>
<clipPath id="clip0_9_40248">
<rect width="81.2459" height="56" fill="white"/>
</clipPath>
</defs>
</svg>
