<svg width="101" height="30" viewBox="0 0 101 30" fill="none" xmlns="http://www.w3.org/2000/svg">
<g clip-path="url(#clip0_9_40188)">
<path d="M85.5773 0.184692H81.325V9.21768C81.378 10.7233 80.8232 11.5418 79.7402 11.674C79.2648 11.7005 78.71 11.674 78.0234 11.542V14.8964H82.4607C84.6793 14.7909 85.7093 13.3383 85.5773 10.4591V0.184692Z" fill="#009842"/>
<path d="M77.2578 3.19586C77.0731 1.55832 75.858 0.501858 73.5866 0H64.4744V3.01092H71.7641C73.1112 3.19587 73.5338 4.06738 73.0585 5.67867H66.7725C64.7388 5.86339 63.7351 7.26347 63.7613 9.85176C63.5501 13.0211 64.5801 14.6589 66.8779 14.7379H77.2578V3.19586ZM71.7114 8.24048C72.187 8.24048 72.6094 8.39916 72.9528 8.76882C73.3226 9.1387 73.4811 9.53485 73.4811 10.0632V10.0895C73.4811 10.5386 73.3226 10.9877 72.9528 11.3309C72.6094 11.6743 72.187 11.8592 71.7114 11.8592H69.5457C69.0438 11.8592 68.6212 11.6743 68.2778 11.3309C67.9081 10.9875 67.7495 10.5386 67.7495 10.0895V10.0632C67.7495 9.53485 67.9081 9.1387 68.2778 8.76882C68.6214 8.39916 69.0438 8.24048 69.5457 8.24048H71.7114Z" fill="#009842"/>
<path d="M12.4665 3.38078V0.184692H3.32806C3.27509 0.211177 3.19609 0.211179 3.11686 0.237663C2.45654 0.448865 1.87546 0.818748 1.34712 1.34709C0.449114 2.27135 0 3.38078 0 4.6747C0 5.99534 0.449114 7.10477 1.34712 7.97628C2.2716 8.90077 3.38081 9.37637 4.67495 9.37637C4.78067 9.37637 4.8599 9.37637 4.93912 9.37637L6.62964 9.40263C7.15798 9.37637 7.73907 9.37637 8.29345 9.37637C8.37268 9.37637 8.4519 9.37637 8.50465 9.37637C8.84805 9.37637 9.16496 9.53482 9.40287 9.74603C9.64034 10.0102 9.74628 10.3009 9.74628 10.6175C9.74628 10.9345 9.64056 11.2516 9.40287 11.5158C9.16496 11.7537 8.84805 11.8592 8.50465 11.8592L0.71306 11.8062V15.0023H9.87803C9.93099 14.9758 10.01 14.9758 10.0892 14.9493C10.7495 14.7381 11.3306 14.3682 11.859 13.8399C12.7305 12.9154 13.2059 11.8062 13.2059 10.5121C13.2059 9.19142 12.7305 8.082 11.859 7.21048C10.9345 6.28599 9.82528 5.81062 8.50465 5.81062C8.39916 5.81062 8.34619 5.81062 8.24048 5.81062C7.05204 5.81062 5.86339 5.81062 4.67495 5.81062C4.35804 5.81062 4.04112 5.67864 3.80344 5.44073C3.53926 5.17656 3.43355 4.88613 3.43355 4.56922C3.43355 4.2523 3.53926 3.93516 3.80344 3.6977C4.04135 3.43353 4.35804 3.32781 4.67495 3.32781L12.4665 3.38078Z" fill="#009842"/>
<path d="M34.498 0.184692V3.19584H41.7613C43.1082 3.38078 43.531 4.2523 43.0819 5.86336H36.7959C34.7355 6.02205 33.7585 7.44817 33.7848 10.0629C33.5735 13.2061 34.6035 14.8434 36.9014 14.8964H47.2813V3.38078C47.0966 1.74324 45.8814 0.686775 43.61 0.184692H34.498ZM43.5043 10.2479C43.5043 10.7233 43.3194 11.1457 42.976 11.5155C42.6326 11.8589 42.1837 12.0174 41.7346 12.0174H39.5689C39.0671 12.0174 38.6444 11.8587 38.301 11.5155C37.9314 11.1457 37.7464 10.7233 37.7464 10.2479V10.2214C37.7464 9.71977 37.9314 9.29691 38.301 8.95374C38.6446 8.61034 39.0671 8.39913 39.5689 8.39913H41.7346C42.1837 8.39913 42.6328 8.61034 42.976 8.95374C43.3194 9.29714 43.5043 9.71977 43.5043 10.2214V10.2479Z" fill="#009842"/>
<path d="M25.4362 0.184692H21.712V11.5418H18.173V0.184692H15.3203V14.8964H29.3454C31.7225 14.368 32.7789 12.9421 32.5413 10.644V0.184692H28.6323V10.3009C28.2099 11.8062 27.1535 12.2818 25.4365 11.7007V0.184692H25.4362Z" fill="#009842"/>
<path d="M63.0428 4.43736C63.0958 1.55841 61.4847 0.13229 58.2624 0.18481H49.2031V14.8965H52.9271V9.74614H56.6776C58.0509 9.98405 58.5793 11.6741 58.2624 14.8965H62.5147C63.2015 11.3309 62.2772 9.16506 59.6885 8.34628C62.0128 8.26706 63.1485 6.94642 63.0428 4.43736ZM57.5491 6.81445H52.9269V3.19596H57.5491C58.8697 4.41065 58.8697 5.59931 57.5491 6.81445Z" fill="#009842"/>
<path d="M55.5469 23.0579H57.5278V28.5516H58.8485V23.0579H60.7764V21.9749H55.5469V23.0579Z" fill="black"/>
<path d="M54.6263 21.9747H53.3849V26.3593L50.6644 21.9747H49.3438V28.5514H50.6114V24.2726L53.2789 28.5514H54.626V21.9747H54.6263Z" fill="black"/>
<path d="M63.0001 24.5634V23.0579H66.5658V21.9749H61.6797V28.5516H66.6718V27.4689H63.0003V25.6464H66.3284V24.5637H63.0001V24.5634Z" fill="black"/>
<path d="M44.5316 24.5634V23.0579H48.1236V21.9749H43.2109V28.5516H48.2293V27.4689H44.5316V25.6464H47.8594V24.5637H44.5316V24.5634Z" fill="black"/>
<path d="M39.2525 21.9747H37.9054V26.2273C37.9054 26.7556 37.8262 27.0988 37.7207 27.2837C37.615 27.4687 37.4038 27.5479 37.0867 27.5479C36.7962 27.5479 36.5848 27.4422 36.4526 27.178C36.3471 26.9931 36.2679 26.7556 36.2679 26.3593L35 26.5177C35.0265 27.2045 35.2114 27.7591 35.5283 28.129C35.872 28.4987 36.3736 28.6836 37.0604 28.6836C37.5887 28.6836 38.0374 28.5516 38.4073 28.3137C38.7242 28.0763 38.9619 27.7854 39.0676 27.3892C39.1733 27.0988 39.2525 26.6764 39.2525 26.1481V21.9747Z" fill="black"/>
<path d="M26.5455 22.1334C26.2288 22.0277 25.7005 21.9747 24.9874 21.9747H22.1875V28.5514H23.5346V25.8044H23.7721C24.089 25.8044 24.3004 25.8309 24.4589 25.8574C24.5908 25.9104 24.723 26.0161 24.8285 26.1481C24.9872 26.3065 25.2247 26.6234 25.5418 27.1515L26.5191 28.5514H28.1039L27.3378 27.2837C26.9944 26.7554 26.7305 26.4122 26.5455 26.1743C26.3608 26.0159 26.1231 25.8309 25.8327 25.646C26.44 25.5403 26.8627 25.3818 27.1533 25.0386C27.4438 24.7217 27.5757 24.2991 27.5757 23.8235C27.5757 23.4273 27.47 23.1106 27.2853 22.7935C27.1004 22.4503 26.8625 22.2389 26.5455 22.1334ZM23.5348 24.7747V23.0579H24.5648C25.0932 23.0579 25.4101 23.0579 25.5158 23.1109C25.7532 23.1371 25.9382 23.2428 26.0441 23.3483C26.1496 23.4803 26.2291 23.6917 26.2291 23.8767C26.2291 24.0879 26.2026 24.2728 26.0704 24.3785C25.9649 24.5105 25.8592 24.616 25.7007 24.669C25.5158 24.7219 25.1196 24.7747 24.4856 24.7747H23.5348Z" fill="black"/>
<path d="M32.1494 21.9747H30.7233L28.1875 28.5514H29.5874L30.1422 27.0725H32.7835L33.3645 28.5514H34.8171L32.1494 21.9747ZM32.3606 25.9366H30.5646L31.4361 23.4803L32.3606 25.9366Z" fill="black"/>
<path d="M11.3378 21.9747H9.72676L8.51162 26.5177L7.53439 21.9747H6.1875L7.74582 28.5514H9.17194L10.4926 23.6388L11.8132 28.5514H13.2395L14.8506 21.9747H13.5037L12.4735 26.5705L11.3378 21.9747Z" fill="black"/>
<path d="M18.8135 21.9747H17.3873L14.8516 28.5514H16.2514L16.7798 27.0725H19.4475L20.0286 28.5514H21.4812L18.8135 21.9747ZM19.0247 25.9366H17.2287L18.1002 23.4803L19.0247 25.9366Z" fill="black"/>
<path d="M100.897 21.9747H95.9844V28.5514H101.003V27.4687H97.305V25.6462H100.633V24.5635H97.305V23.0579H100.897V21.9747Z" fill="black"/>
<path d="M85.5826 25.0386C85.8732 24.7217 86.0317 24.2991 86.0317 23.8235C86.0317 23.4273 85.9262 23.1106 85.7413 22.7935C85.5563 22.4501 85.3184 22.2387 85.0017 22.1332C84.6848 22.0275 84.13 21.9745 83.4434 21.9745H80.6172V28.5512H81.9643V25.8042H82.2285C82.5452 25.8042 82.7568 25.8307 82.8888 25.8572C83.0472 25.9101 83.1792 26.0158 83.2849 26.1478C83.4434 26.3063 83.6811 26.6232 83.9978 27.1513L84.9487 28.5512H86.5598L85.7675 27.2835C85.4506 26.7552 85.1602 26.412 85.0017 26.1741C84.8168 26.0156 84.5789 25.8307 84.2884 25.6457C84.896 25.5405 85.3184 25.382 85.5826 25.0386ZM81.9643 23.0579H82.9943C83.5491 23.0579 83.8658 23.0579 83.9715 23.1109C84.2094 23.1371 84.3939 23.2428 84.4998 23.3483C84.6056 23.4803 84.6848 23.6917 84.6848 23.8767C84.6848 24.0879 84.6318 24.2728 84.5261 24.3785C84.4206 24.5105 84.3149 24.616 84.13 24.6689C83.9715 24.7219 83.5754 24.7747 82.9413 24.7747H81.9643V23.0579Z" fill="black"/>
<path d="M89.7488 23.6915C89.7488 24.2463 89.96 24.6687 90.3561 25.0121C90.6203 25.2763 91.1219 25.4877 91.8617 25.6462C92.39 25.8047 92.7595 25.9104 92.9444 25.9631C93.1556 26.0423 93.2878 26.1481 93.3935 26.2535C93.499 26.3593 93.5255 26.4915 93.5255 26.6497C93.5255 26.8876 93.4198 27.0988 93.2086 27.2837C92.9974 27.4687 92.6802 27.5742 92.2578 27.5742C91.835 27.5742 91.5181 27.4687 91.2539 27.2573C91.0164 27.0461 90.8842 26.7289 90.805 26.3065L89.4844 26.4122C89.5899 27.1518 89.854 27.7064 90.3032 28.129C90.7785 28.4987 91.4126 28.6836 92.2311 28.6836C92.786 28.6836 93.2876 28.6044 93.6837 28.4457C94.0799 28.2872 94.344 28.0233 94.5553 27.7061C94.7667 27.3892 94.8722 27.0458 94.8722 26.6497C94.8722 26.2273 94.7667 25.8574 94.608 25.5932C94.4231 25.3028 94.2119 25.0916 93.8947 24.9067C93.578 24.7217 93.1024 24.5897 92.4421 24.4575C91.8083 24.2726 91.4121 24.1406 91.2272 23.9822C91.0952 23.8765 91.016 23.771 91.016 23.586C91.016 23.4273 91.0952 23.3219 91.2272 23.2161C91.4384 23.0312 91.7555 22.952 92.1517 22.952C92.5478 22.952 92.8383 23.0312 92.9969 23.1632C93.1819 23.3219 93.2874 23.5593 93.3666 23.9029L94.661 23.85C94.661 23.2426 94.4498 22.7405 94.0269 22.3974C93.6045 22.0275 92.9704 21.869 92.1517 21.869C91.6498 21.869 91.2272 21.922 90.831 22.0802C90.4876 22.2387 90.197 22.4501 90.0123 22.7405C89.8543 23.0312 89.7488 23.3483 89.7488 23.6915Z" fill="black"/>
<path d="M88.5678 21.9747H87.2734V28.5514H88.5678V21.9747Z" fill="black"/>
<path d="M72.9288 22.7937C72.7438 22.4503 72.5059 22.2389 72.1892 22.1334C71.8723 22.0277 71.3175 21.9747 70.6309 21.9747H67.8047V28.5514H69.1518V25.8044H69.416C69.7327 25.8044 69.9443 25.8309 70.0763 25.8574C70.2347 25.9104 70.3667 26.0161 70.4724 26.1481C70.6309 26.3065 70.8686 26.6234 71.1853 27.1515L72.1362 28.5514H73.7473L72.955 27.2837C72.6381 26.7554 72.3477 26.4122 72.1892 26.1743C72.0043 26.0159 71.7664 25.8309 71.4759 25.646C72.0833 25.5403 72.5059 25.3818 72.7701 25.0386C73.0607 24.7217 73.2192 24.2991 73.2192 23.8235C73.2192 23.4273 73.1137 23.1106 72.9288 22.7937ZM69.1518 24.7747V23.0579H70.1818C70.7366 23.0579 71.0533 23.0579 71.159 23.1109C71.3969 23.1371 71.5814 23.2428 71.6873 23.3483C71.7931 23.4803 71.8723 23.6917 71.8723 23.8767C71.8723 24.0879 71.8193 24.2728 71.7136 24.3785C71.6081 24.5105 71.5024 24.616 71.3175 24.669C71.159 24.7219 70.7629 24.7747 70.1288 24.7747H69.1518Z" fill="black"/>
<path d="M76.624 21.9747H74.4844V28.5514H75.805V26.0686H76.6767C77.2841 26.0686 77.7595 26.0423 78.0766 25.9631C78.3141 25.9366 78.5257 25.8311 78.7899 25.6462C79.0011 25.5142 79.1596 25.3028 79.3182 25.0121C79.4502 24.7217 79.5294 24.3783 79.5294 23.9822C79.5294 23.4538 79.4237 23.0312 79.1595 22.7145C78.9221 22.3976 78.6049 22.1862 78.2088 22.0804C77.9709 22.0014 77.4163 21.9747 76.624 21.9747ZM75.805 24.9329V23.0577H76.4653C76.9409 23.0577 77.2576 23.1106 77.4163 23.1369C77.6538 23.1632 77.8124 23.2426 77.9709 23.4273C78.1029 23.5593 78.1821 23.771 78.1821 24.0351C78.1821 24.2198 78.1296 24.3785 78.0236 24.5105C77.9179 24.669 77.7857 24.7747 77.6012 24.8274C77.4163 24.9066 77.0729 24.9329 76.5448 24.9329H75.805Z" fill="black"/>
<path d="M0.584708 23.6915C0.584708 24.2463 0.79591 24.6687 1.16579 25.0121C1.45623 25.2763 1.95808 25.4877 2.69763 25.6462C3.22597 25.8047 3.59585 25.9104 3.75409 25.9631C3.96529 26.0423 4.12397 26.1481 4.22946 26.2535C4.33517 26.3593 4.36143 26.4915 4.36143 26.6497C4.36143 26.8876 4.25595 27.0988 4.04474 27.2837C3.83332 27.4687 3.5164 27.5742 3.09377 27.5742C2.67137 27.5742 2.35423 27.4687 2.09006 27.2573C1.85215 27.0461 1.72017 26.7289 1.64094 26.3065L0.320312 26.4122C0.426026 27.1518 0.690197 27.7064 1.13931 28.129C1.5882 28.4987 2.24852 28.6836 3.06729 28.6836C3.62189 28.6836 4.12375 28.6044 4.51989 28.4457C4.88955 28.2872 5.18021 28.0233 5.39141 27.7061C5.60261 27.3892 5.70833 27.0458 5.70833 26.6497C5.70833 26.2273 5.60261 25.8574 5.44415 25.5932C5.25921 25.3028 5.04801 25.0916 4.73087 24.9067C4.41395 24.7217 3.93858 24.5897 3.27827 24.4575C2.61795 24.2726 2.24807 24.1406 2.06335 23.9822C1.93137 23.8765 1.85192 23.771 1.85192 23.586C1.85192 23.4273 1.93137 23.3219 2.06335 23.2161C2.27455 23.0312 2.59169 22.952 2.98783 22.952C3.38398 22.952 3.64815 23.0312 3.83287 23.1632C4.01781 23.3219 4.12352 23.5593 4.20275 23.9029L5.49712 23.85C5.49712 23.2426 5.2857 22.7405 4.86307 22.3974C4.44066 22.0275 3.80661 21.869 2.98783 21.869C2.48598 21.869 2.06335 21.922 1.6672 22.0802C1.32358 22.2387 1.03315 22.4501 0.848206 22.7405C0.690422 23.0312 0.584708 23.3483 0.584708 23.6915Z" fill="black"/>
</g>
<defs>
<clipPath id="clip0_9_40188">
<rect width="101" height="29.2368" fill="white"/>
</clipPath>
</defs>
</svg>
