<svg width="107" height="29" viewBox="0 0 107 29" fill="none" xmlns="http://www.w3.org/2000/svg">
<g filter="url(#filter0_d_9_40109)">
<path d="M41.0024 3.64978e-05L39.3635 1.61156V18.507H42.9306V12.7193L47.7374 18.507H52.4935L46.2701 11.642L52.4935 4.62677H47.6616L42.9306 10.5221V3.64978e-05H41.0024Z" fill="#721940"/>
<path d="M8.94976 18.7296C6.42606 18.7296 4.3033 17.8877 2.58202 16.2032C0.860554 14.5193 0 12.3807 0 9.78736C0 7.19461 0.864834 5.05599 2.59468 3.37151C4.32453 1.68755 6.44675 0.845308 8.96224 0.845308C11.4776 0.845308 13.5959 1.68755 15.3175 3.37151C17.0386 5.05599 17.8995 7.19461 17.8995 9.78736C17.8995 12.3807 17.0386 14.5193 15.3175 16.2032C13.5959 17.8877 11.4733 18.7296 8.94976 18.7296ZM12.8104 13.9395C13.7965 12.8978 14.2895 11.5094 14.2895 9.77491C14.2895 8.04077 13.7965 6.65684 12.8104 5.62277C11.8243 4.58905 10.5375 4.07192 8.94976 4.07192C7.3617 4.07192 6.0706 4.59332 5.07664 5.63523C4.08197 6.67749 3.5849 8.06159 3.5849 9.78736C3.5849 11.5133 4.08197 12.8978 5.07664 13.9395C6.0706 14.9819 7.3617 15.503 8.94976 15.503C10.5375 15.503 11.8243 14.9819 12.8104 13.9395Z" fill="#721940"/>
<path d="M28.6625 4.62677H32.0512V18.507H28.4841V16.4023C27.6045 17.9226 26.1698 18.6824 24.1788 18.6824C22.6191 18.6824 21.3418 18.1607 20.3462 17.1165C19.3508 16.0728 18.853 14.6234 18.853 12.7695V4.62677H22.4201V12.2557C22.4201 13.3398 22.698 14.1735 23.2541 14.757C23.81 15.3409 24.5684 15.6324 25.5286 15.6324C26.4889 15.6324 27.2511 15.3409 27.8158 14.757C28.3801 14.1735 28.6625 13.3398 28.6625 12.2557V4.62677Z" fill="#721940"/>
<path d="M34.0131 4.62674H37.5802V18.5069H34.0131V4.62674Z" fill="#721940"/>
<path d="M52.8108 16.8213C51.5466 15.5267 50.9147 13.8093 50.9147 11.6683C50.9147 9.52739 51.5466 7.80963 52.8108 6.51521C54.0748 5.22079 55.7131 4.57358 57.726 4.57358C59.4059 4.57358 60.8112 4.98038 61.9425 5.79326C63.0736 6.60668 63.8301 7.7598 64.2131 9.25353H60.4206C59.9715 8.10841 59.0733 7.53576 57.726 7.53576C56.7112 7.53576 55.9171 7.90537 55.3432 8.64369C54.7694 9.38236 54.4825 10.3905 54.4825 11.6683C54.4825 12.9464 54.7694 13.9546 55.3432 14.693C55.9171 15.4316 56.7112 15.8007 57.726 15.8007C59.0565 15.8007 59.9549 15.2199 60.4206 14.0582H64.2131C63.8139 15.5019 63.0443 16.647 61.9052 17.4934C60.7657 18.3399 59.3726 18.7631 57.726 18.7631C55.7131 18.7631 54.0748 18.1159 52.8108 16.8213Z" fill="#721940"/>
<path d="M66.3587 16.6904C65.0929 15.346 64.4604 13.6298 64.4604 11.5417C64.4604 9.45401 65.0888 7.74603 66.3458 6.41816C67.6027 5.09028 69.1995 4.42635 71.1358 4.42635C73.0724 4.42635 74.5502 5.21165 75.5694 6.78136V4.62672H79.1364V18.5069H75.5694V16.1768C74.4992 17.864 73.0125 18.7073 71.1105 18.7073C69.2078 18.7073 67.6237 18.0352 66.3587 16.6904ZM74.4527 14.6151C75.188 13.8896 75.556 12.8935 75.556 11.6259C75.556 10.3589 75.188 9.36219 74.4527 8.63668C73.7171 7.91135 72.8566 7.54868 71.8707 7.54868C70.8842 7.54868 70.0279 7.90761 69.3011 8.6244C68.574 9.34154 68.2105 10.3338 68.2105 11.601C68.2105 12.8684 68.5779 13.8688 69.3134 14.6025C70.0488 15.3365 70.9054 15.7031 71.8831 15.7031C72.8609 15.7031 73.7171 15.3403 74.4527 14.6151Z" fill="#721940"/>
<path d="M84.487 4.62677V7.23536C85.4322 5.46795 86.7997 4.58406 88.5891 4.58406V8.1858H87.7027C86.6393 8.1858 85.8373 8.44846 85.2972 8.97377C84.7568 9.49908 84.487 10.404 84.487 11.6877V18.507H80.9199V4.62677H84.487Z" fill="#721940"/>
<path d="M8.86032 19.2188L6.01166 22.061V25.2642L8.86032 22.4219L15.525 22.4235L18.7623 19.2188H8.86032Z" fill="#721940"/>
<path d="M34.0131 3.20312H37.5802V0H34.0131V3.20312Z" fill="#721940"/>
<path d="M101.083 3.71885e-05L99.4329 1.62029V6.80276C98.4138 5.23555 96.936 4.45185 94.9996 4.45185C93.0632 4.45185 91.4663 5.11454 90.2096 6.4401C88.9524 7.7653 88.3242 9.47043 88.3242 11.5542C88.3242 13.6388 88.9567 15.3517 90.2223 16.6938C91.4875 18.0361 93.0716 18.707 94.9739 18.707C96.8762 18.707 98.3628 17.8651 99.4329 16.1812V18.507H103V3.71885e-05H101.083ZM98.4393 14.615C97.7038 15.3402 96.8475 15.703 95.8698 15.703C94.8921 15.703 94.0354 15.3366 93.3001 14.6024C92.5646 13.8689 92.1972 12.8682 92.1972 11.6007C92.1972 10.3337 92.5606 9.3416 93.2878 8.62427C94.0146 7.90749 94.8708 7.54873 95.8573 7.54873C96.8433 7.54873 97.7038 7.9114 98.4393 8.63691C99.1747 9.36224 99.5426 10.3588 99.5426 11.626C99.5426 12.8933 99.1747 13.8895 98.4393 14.615Z" fill="#721940"/>
</g>
<defs>
<filter id="filter0_d_9_40109" x="0" y="0" width="106.109" height="28.3736" filterUnits="userSpaceOnUse" color-interpolation-filters="sRGB">
<feFlood flood-opacity="0" result="BackgroundImageFix"/>
<feColorMatrix in="SourceAlpha" type="matrix" values="0 0 0 0 0 0 0 0 0 0 0 0 0 0 0 0 0 0 127 0" result="hardAlpha"/>
<feOffset dx="1.55472" dy="1.55472"/>
<feGaussianBlur stdDeviation="0.777358"/>
<feComposite in2="hardAlpha" operator="out"/>
<feColorMatrix type="matrix" values="0 0 0 0 0 0 0 0 0 0 0 0 0 0 0 0 0 0 0.07 0"/>
<feBlend mode="normal" in2="BackgroundImageFix" result="effect1_dropShadow_9_40109"/>
<feBlend mode="normal" in="SourceGraphic" in2="effect1_dropShadow_9_40109" result="shape"/>
</filter>
</defs>
</svg>
