<svg width="250" height="71" viewBox="0 0 250 71" fill="none" xmlns="http://www.w3.org/2000/svg">
<g clip-path="url(#clip0_3563_7942)">
<path d="M0 0C9.90959 10.6425 24.7011 39.7422 4.59046 71C18.5805 59.4642 37.2483 29.1143 0 0Z" fill="#434343"/>
<path d="M41.8299 9.86328C34.3122 21.318 24.1635 48.5964 43.7091 66.0717C30.6429 59.2343 11.9743 38.4203 41.8299 9.86328Z" fill="#434343"/>
<path d="M63.5662 45.4136C66.2152 46.1039 68.9475 46.449 71.7615 46.449C75.0732 46.449 77.888 45.956 80.2057 44.97C82.5234 43.9509 84.2617 42.6033 85.4212 40.9268C86.5801 39.2505 87.1595 37.3768 87.1595 35.306C87.1595 32.9066 86.5139 31.0164 85.2224 29.6359C83.9642 28.2225 82.4572 27.2035 80.7025 26.5789C78.9805 25.9215 76.7952 25.3134 74.1463 24.7547C71.7948 24.2615 70.0896 23.785 69.0299 23.3249C67.9705 22.8646 67.4404 22.1743 67.4404 21.2541C67.4404 20.3337 67.8873 19.5941 68.7818 19.0352C69.6757 18.4435 71.0997 18.1477 73.053 18.1477C76.1658 18.1477 79.3781 19.0352 82.6891 20.8102L85.7187 13.5623C84.0305 12.5762 82.0764 11.8366 79.8581 11.3435C77.6396 10.8176 75.3875 10.5547 73.1029 10.5547C69.7588 10.5547 66.9273 11.0477 64.6094 12.0338C62.3248 13.0199 60.6027 14.3676 59.4437 16.0769C58.2849 17.7533 57.7054 19.6432 57.7054 21.7471C57.7054 24.1465 58.3346 26.053 59.5928 27.4664C60.8509 28.8798 62.358 29.9154 64.1126 30.5727C65.8678 31.1972 68.0531 31.7889 70.669 32.3477C73.0536 32.8737 74.775 33.3831 75.8345 33.8761C76.9277 34.3364 77.4741 35.0594 77.4741 36.0456C77.4741 37.9192 75.5863 38.856 71.8116 38.856C69.8244 38.856 67.8049 38.5438 65.7521 37.9192C63.6987 37.2947 61.8943 36.4728 60.3378 35.4539L57.1094 42.6526C58.7651 43.803 60.9172 44.7234 63.5662 45.4136Z" fill="#434343"/>
<path d="M119.618 45.7559V38.2122H101.438V31.9012H116.885V24.6039H101.438V18.7859H118.972V11.2422H91.7031V45.7559H119.618Z" fill="#434343"/>
<path fill-rule="evenodd" clip-rule="evenodd" d="M148.374 39.0504H133.671L130.94 45.756H120.906L136.254 11.2422H145.94L161.338 45.756H151.105L148.374 39.0504ZM145.493 31.8519L141.023 20.8074L136.552 31.8519H145.493Z" fill="#434343"/>
<path d="M168.144 45.4136C170.794 46.1039 173.525 46.449 176.339 46.449C179.652 46.449 182.466 45.956 184.785 44.97C187.102 43.9509 188.84 42.6033 189.999 40.9268C191.157 39.2505 191.737 37.3768 191.737 35.306C191.737 32.9066 191.092 31.0164 189.8 29.6359C188.542 28.2225 187.036 27.2035 185.28 26.5789C183.559 25.9215 181.373 25.3134 178.724 24.7547C176.372 24.2615 174.668 23.785 173.608 23.3249C172.549 22.8646 172.019 22.1743 172.019 21.2541C172.019 20.3337 172.465 19.5941 173.359 19.0352C174.254 18.4435 175.678 18.1477 177.631 18.1477C180.745 18.1477 183.955 19.0352 187.268 20.8102L190.297 13.5623C188.608 12.5762 186.655 11.8366 184.437 11.3435C182.217 10.8176 179.965 10.5547 177.681 10.5547C174.336 10.5547 171.505 11.0477 169.188 12.0338C166.902 13.0199 165.181 14.3676 164.022 16.0769C162.863 17.7533 162.283 19.6432 162.283 21.7471C162.283 24.1465 162.913 26.053 164.171 27.4664C165.429 28.8798 166.936 29.9154 168.691 30.5727C170.446 31.1972 172.631 31.7889 175.246 32.3477C177.631 32.8737 179.354 33.3831 180.412 33.8761C181.505 34.3364 182.052 35.0594 182.052 36.0456C182.052 37.9192 180.164 38.856 176.389 38.856C174.403 38.856 172.383 38.5438 170.33 37.9192C168.277 37.2947 166.472 36.4728 164.916 35.4539L161.688 42.6526C163.343 43.803 165.495 44.7234 168.144 45.4136Z" fill="#434343"/>
<path d="M196.281 11.2422H206.116V45.7559H196.281V11.2422Z" fill="#434343"/>
<path fill-rule="evenodd" clip-rule="evenodd" d="M221.702 39.0504H236.404L239.137 45.756H249.368L233.971 11.2422H224.286L208.938 45.756H218.971L221.702 39.0504ZM229.053 20.8074L233.523 31.8519H224.583L229.053 20.8074Z" fill="#434343"/>
<path d="M64.9809 63.4821H59.2766L58.0482 66.2156H56.9219L61.6025 55.9844H62.6698L67.3499 66.2156H66.209L64.9809 63.4821ZM64.5857 62.6056L62.1289 57.1098L59.6716 62.6056H64.5857Z" fill="#222222"/>
<path d="M77.3244 66.3948C76.2806 66.3948 75.3349 66.1702 74.4869 65.7224C73.6484 65.2642 72.9853 64.6356 72.498 63.8367C72.0197 63.0277 71.7812 62.117 71.7812 61.1037C71.7812 60.09 72.0197 59.184 72.498 58.385C72.9853 57.5762 73.6484 56.9478 74.4869 56.4996C75.3349 56.0416 76.2861 55.8125 77.339 55.8125C78.2261 55.8125 79.0255 55.9685 79.7374 56.2802C80.459 56.5921 81.0637 57.0403 81.551 57.6249L80.0301 59.0281C79.3374 58.2291 78.4797 57.8296 77.4557 57.8296C76.8221 57.8296 76.2565 57.9709 75.759 58.2535C75.2622 58.5263 74.8718 58.9112 74.5892 59.408C74.3165 59.905 74.1797 60.4703 74.1797 61.1037C74.1797 61.7367 74.3165 62.3021 74.5892 62.7991C74.8718 63.2961 75.2622 63.6859 75.759 63.9685C76.2565 64.2409 76.8221 64.3774 77.4557 64.3774C78.4797 64.3774 79.3374 63.9732 80.0301 63.1643L81.551 64.5673C81.0637 65.1618 80.459 65.6152 79.7374 65.9271C79.0158 66.2384 78.2118 66.3948 77.3244 66.3948Z" fill="#222222"/>
<path d="M92.4654 66.2158L92.4503 60.0769L89.4375 65.1337H88.3701L85.3716 60.2087V66.2158H83.1484V55.9844H85.1084L88.9405 62.3422L92.7135 55.9844H94.6591L94.6885 66.2158H92.4654Z" fill="#222222"/>
<path d="M106.434 66.2156L106.419 60.0769L103.406 65.1337H102.339L99.3405 60.2085V66.2156H97.1172V55.9844H99.0773L102.909 62.3422L106.682 55.9844H108.628L108.657 66.2156H106.434Z" fill="#222222"/>
<path d="M111.086 55.9844H113.456V66.2158H111.086V55.9844Z" fill="#222222"/>
<path d="M119.719 55.9844H122.088V64.2865H127.222V66.2158H119.719V55.9844Z" fill="#222222"/>
<path d="M136.035 62.3125C136.035 62.3413 136.021 62.546 135.991 62.9263H130.039C130.146 63.413 130.4 63.7982 130.799 64.0808C131.199 64.3634 131.696 64.5047 132.291 64.5047C132.701 64.5047 133.061 64.446 133.373 64.3293C133.695 64.2024 133.993 64.0077 134.265 63.7448L135.479 65.0597C134.738 65.9077 133.656 66.3317 132.232 66.3317C131.345 66.3317 130.56 66.1609 129.878 65.8203C129.195 65.4694 128.668 64.9868 128.298 64.3729C127.928 63.7592 127.742 63.0622 127.742 62.2833C127.742 61.5132 127.923 60.8215 128.284 60.2078C128.654 59.5839 129.156 59.1016 129.79 58.7606C130.433 58.4098 131.15 58.2344 131.94 58.2344C132.71 58.2344 133.408 58.4001 134.032 58.7314C134.656 59.0626 135.143 59.5401 135.494 60.1635C135.855 60.7779 136.035 61.494 136.035 62.3125ZM131.955 59.9593C131.438 59.9593 131.004 60.1053 130.653 60.3976C130.302 60.6898 130.088 61.0893 130.009 61.5958H133.885C133.807 61.0993 133.593 60.7048 133.241 60.412C132.891 60.1102 132.461 59.9593 131.955 59.9593Z" fill="#222222"/>
<path d="M145.214 58.3516L141.894 66.2151H139.54L136.234 58.3516H138.589L140.769 63.7006L143.021 58.3516H145.214Z" fill="#222222"/>
<path d="M153.637 62.3125C153.637 62.3413 153.622 62.546 153.593 62.9263H147.64C147.747 63.413 148.001 63.7982 148.401 64.0808C148.801 64.3634 149.297 64.5047 149.893 64.5047C150.302 64.5047 150.662 64.446 150.974 64.3293C151.297 64.2024 151.594 64.0077 151.867 63.7448L153.081 65.0597C152.34 65.9077 151.258 66.3317 149.834 66.3317C148.946 66.3317 148.161 66.1609 147.479 65.8203C146.797 65.4694 146.27 64.9868 145.9 64.3729C145.529 63.7592 145.344 63.0622 145.344 62.2833C145.344 61.5132 145.525 60.8215 145.885 60.2078C146.256 59.5839 146.758 59.1016 147.391 58.7606C148.035 58.4098 148.752 58.2344 149.541 58.2344C150.312 58.2344 151.009 58.4001 151.633 58.7314C152.257 59.0626 152.745 59.5401 153.095 60.1635C153.456 60.7779 153.637 61.494 153.637 62.3125ZM149.556 59.9593C149.039 59.9593 148.605 60.1053 148.254 60.3976C147.903 60.6898 147.689 61.0893 147.611 61.5958H151.486C151.409 61.0993 151.194 60.7048 150.843 60.412C150.492 60.1102 150.063 59.9593 149.556 59.9593Z" fill="#222222"/>
<path d="M155.156 55.3711H157.438V66.2163H155.156V55.3711Z" fill="#222222"/>
<path d="M166.731 59.8284C168.175 59.8284 169.237 60.1157 169.92 60.6906C170.612 61.2654 170.958 62.0355 170.958 63.0002C170.958 63.6235 170.802 64.1935 170.49 64.7103C170.178 65.217 169.7 65.6258 169.057 65.9379C168.423 66.2396 167.638 66.3911 166.702 66.3911C165.981 66.3911 165.269 66.2983 164.567 66.1133C163.875 65.9181 163.285 65.6456 162.797 65.2947L163.733 63.4821C164.123 63.7745 164.571 64.0037 165.079 64.1689C165.586 64.3253 166.107 64.4031 166.643 64.4031C167.239 64.4031 167.706 64.2864 168.047 64.0522C168.389 63.8188 168.559 63.4924 168.559 63.0733C168.559 62.6348 168.379 62.3032 168.018 62.0793C167.667 61.8552 167.053 61.7433 166.175 61.7433H163.558L164.084 55.9844H170.329V57.8844H166.059L165.898 59.8284H166.731Z" fill="#222222"/>
<path d="M181.29 66.305C180.275 66.305 179.359 66.0809 178.54 65.6325C177.732 65.1845 177.093 64.5655 176.625 63.7761C176.166 62.9775 175.938 62.0858 175.938 61.102C175.938 60.1176 176.166 59.2309 176.625 58.4416C177.093 57.6426 177.737 57.019 178.554 56.5709C179.373 56.1225 180.291 55.8984 181.304 55.8984C182.064 55.8984 182.767 56.0252 183.41 56.2785C184.054 56.5319 184.6 56.9021 185.048 57.3893L184.361 58.0762C183.562 57.2675 182.553 56.8632 181.333 56.8632C180.525 56.8632 179.789 57.0483 179.126 57.4185C178.462 57.7888 177.941 58.2955 177.56 58.9386C177.19 59.5816 177.004 60.3025 177.004 61.102C177.004 61.9007 177.19 62.6218 177.56 63.2648C177.941 63.9079 178.462 64.4145 179.126 64.7852C179.789 65.1553 180.525 65.3402 181.333 65.3402C182.563 65.3402 183.571 64.9312 184.361 64.1128L185.048 64.7996C184.6 65.2869 184.049 65.6618 183.396 65.9252C182.752 66.1785 182.05 66.305 181.29 66.305Z" fill="#222222"/>
<path d="M189.934 66.2885C189.193 66.2885 188.527 66.1225 187.931 65.7914C187.337 65.4501 186.868 64.9824 186.526 64.3884C186.185 63.7939 186.016 63.1215 186.016 62.3712C186.016 61.6208 186.185 60.9484 186.526 60.3544C186.868 59.7597 187.337 59.297 187.931 58.9657C188.527 58.6345 189.193 58.4688 189.934 58.4688C190.676 58.4688 191.344 58.6345 191.938 58.9657C192.534 59.297 192.996 59.7597 193.329 60.3544C193.67 60.9484 193.839 61.6208 193.839 62.3712C193.839 63.1215 193.67 63.7939 193.329 64.3884C192.996 64.9824 192.534 65.4501 191.938 65.7914C191.344 66.1225 190.676 66.2885 189.934 66.2885ZM189.934 65.3675C190.482 65.3675 190.968 65.246 191.398 65.0023C191.836 64.749 192.177 64.3933 192.421 63.9352C192.665 63.477 192.787 62.9561 192.787 62.3712C192.787 61.7867 192.665 61.2651 192.421 60.8071C192.177 60.3496 191.836 59.9987 191.398 59.7551C190.968 59.5017 190.482 59.375 189.934 59.375C189.389 59.375 188.897 59.5017 188.457 59.7551C188.028 59.9987 187.688 60.3496 187.434 60.8071C187.19 61.2651 187.069 61.7867 187.069 62.3712C187.069 62.9561 187.19 63.477 187.434 63.9352C187.688 64.3933 188.028 64.749 188.457 65.0023C188.897 65.246 189.389 65.3675 189.934 65.3675Z" fill="#222222"/>
<path d="M205.556 58.4688C206.521 58.4688 207.276 58.7465 207.823 59.3019C208.379 59.8574 208.656 60.676 208.656 61.7574V66.2154H207.617V61.8598C207.617 61.0604 207.423 60.4514 207.033 60.0328C206.652 59.6138 206.11 59.4042 205.409 59.4042C204.611 59.4042 203.98 59.6525 203.523 60.1495C203.064 60.637 202.836 61.3143 202.836 62.1814V66.2154H201.797V61.8598C201.797 61.0604 201.603 60.4514 201.211 60.0328C200.832 59.6138 200.285 59.4042 199.573 59.4042C198.784 59.4042 198.155 59.6525 197.687 60.1495C197.229 60.637 197 61.3143 197 62.1814V66.2154H195.961V58.5273H196.955V59.9305C197.229 59.4628 197.61 59.1022 198.096 58.8489C198.584 58.5955 199.144 58.4688 199.778 58.4688C200.422 58.4688 200.978 58.6052 201.445 58.878C201.923 59.1509 202.28 59.555 202.514 60.0908C202.796 59.5843 203.201 59.1898 203.728 58.9072C204.264 58.6149 204.874 58.4688 205.556 58.4688Z" fill="#222222"/>
<path d="M215.433 58.4688C216.155 58.4688 216.808 58.6345 217.393 58.9657C217.977 59.2873 218.435 59.7454 218.766 60.3393C219.099 60.934 219.265 61.6113 219.265 62.3712C219.265 63.1412 219.099 63.8232 218.766 64.4172C218.435 65.0118 217.977 65.4747 217.393 65.8058C216.818 66.1274 216.163 66.2885 215.433 66.2885C214.809 66.2885 214.243 66.1615 213.736 65.9082C213.239 65.6453 212.83 65.265 212.508 64.7682V69.0507H211.469V58.5273H212.463V60.0472C212.776 59.5407 213.185 59.1509 213.692 58.878C214.208 58.6052 214.788 58.4688 215.433 58.4688ZM215.36 65.3675C215.895 65.3675 216.383 65.246 216.821 65.0023C217.261 64.749 217.602 64.3933 217.847 63.9352C218.099 63.477 218.226 62.9561 218.226 62.3712C218.226 61.7867 218.099 61.27 217.847 60.822C217.602 60.3639 217.261 60.0082 216.821 59.7551C216.383 59.5017 215.895 59.375 215.36 59.375C214.813 59.375 214.321 59.5017 213.883 59.7551C213.453 60.0082 213.112 60.3639 212.859 60.822C212.615 61.27 212.492 61.7867 212.492 62.3712C212.492 62.9561 212.615 63.477 212.859 63.9352C213.112 64.3933 213.453 64.749 213.883 65.0023C214.321 65.246 214.813 65.3675 215.36 65.3675Z" fill="#222222"/>
<path d="M224.038 58.4688C225.043 58.4688 225.813 58.7221 226.348 59.2288C226.885 59.7256 227.154 60.4664 227.154 61.4502V66.2154H226.16V65.0165C225.924 65.416 225.58 65.7279 225.121 65.952C224.672 66.1764 224.135 66.2885 223.512 66.2885C222.653 66.2885 221.971 66.0836 221.463 65.6747C220.958 65.265 220.703 64.7244 220.703 64.052C220.703 63.3993 220.937 62.8728 221.406 62.4735C221.882 62.0742 222.639 61.8742 223.673 61.8742H226.115V61.4064C226.115 60.7442 225.929 60.2424 225.559 59.901C225.188 59.5502 224.648 59.375 223.936 59.375C223.448 59.375 222.98 59.4577 222.532 59.6233C222.083 59.7795 221.699 59.9987 221.377 60.2813L220.909 59.5066C221.299 59.1751 221.766 58.9218 222.312 58.7465C222.857 58.5614 223.434 58.4688 224.038 58.4688ZM223.673 65.4699C224.257 65.4699 224.761 65.3381 225.18 65.0752C225.599 64.8023 225.91 64.4125 226.115 63.9058V62.6489H223.701C222.385 62.6489 221.727 63.1071 221.727 64.0227C221.727 64.471 221.898 64.8267 222.239 65.0896C222.58 65.3429 223.058 65.4699 223.673 65.4699Z" fill="#222222"/>
<path d="M233.888 58.4688C234.854 58.4688 235.618 58.7512 236.184 59.3164C236.759 59.8716 237.046 60.6853 237.046 61.7573V66.2152H236.009V61.8596C236.009 61.0602 235.808 60.4512 235.408 60.0327C235.01 59.6136 234.438 59.404 233.697 59.404C232.869 59.404 232.211 59.6525 231.723 60.1495C231.245 60.6368 231.006 61.3141 231.006 62.1812V66.2152H229.969V58.5271H230.963V59.9447C231.245 59.4771 231.636 59.1166 232.133 58.8632C232.639 58.6002 233.224 58.4688 233.888 58.4688Z" fill="#222222"/>
<path d="M246.184 58.5312L242.338 67.1397C242.026 67.8613 241.666 68.3725 241.255 68.6744C240.847 68.9767 240.353 69.1277 239.778 69.1277C239.408 69.1277 239.061 69.069 238.739 68.9523C238.417 68.8354 238.14 68.66 237.906 68.4259L238.389 67.6516C238.779 68.0414 239.247 68.2361 239.794 68.2361C240.144 68.2361 240.441 68.1384 240.686 67.9439C240.938 67.7493 241.172 67.4175 241.387 66.9499L241.723 66.2044L238.287 58.5312H239.368L242.265 65.0643L245.16 58.5312H246.184Z" fill="#222222"/>
</g>
<defs>
<clipPath id="clip0_3563_7942">
<rect width="249.366" height="71" fill="white"/>
</clipPath>
</defs>
</svg>
